<svg width="60px" height="43px" viewBox="0 0 60 43" version="1.1" xmlns="http://www.w3.org/2000/svg" xmlns:xlink="http://www.w3.org/1999/xlink">
    <g id="Page-1" stroke="none" stroke-width="1" fill="none" fill-rule="evenodd">
        <g id="estimate---1" transform="translate(-930.000000, -499.000000)">
            <g id="top" transform="translate(0.000000, 1.000000)">
                <g id="Group" transform="translate(724.000000, 274.000000)">
                    <g id="Group-18">
                        <g id="Group-10-Copy" transform="translate(159.000000, 180.000000)">
                            <g id="Group-45" transform="translate(29.000000, 44.000000)">
                                <g id="craigslist" transform="translate(19.000000, 0.000000)">
                                    <path d="M4.30434398,25.55125 L9.41985,8.89525 L5.32084518,7.62275 C5.32084518,7.62275 3.22534271,9.68025 1.25284039,15.57575 C-0.71966193,21.47125 0.263839228,23.91025 0.263839228,23.91025 L4.30434398,25.55125 Z" id="Fill-1" fill="#677BC5"></path>
                                    <path d="M9.47135,9.88425088 L4.83485,24.9172422 L8.74485,26.2832415 L11.34385,29.3962397 C11.34385,29.3962397 10.69985,30.480239 10.75585,30.9947387 C10.81185,31.5092384 11.68285,32.7592377 11.68285,32.7592377 L13.65435,33.0967375 L14.99685,35.2522363 L17.70585,35.5902361 L18.65335,38.0372347 L20.96035,38.3822345 L22.31335,40.2332334 L24.21485,40.5782332 L25.76185,38.8097343 L29.00285,41.3082328 C29.00285,41.3082328 31.43935,42.5702321 33.16735,39.7502337 C33.16735,39.7502337 37.84235,40.981733 37.85585,37.2627351 C37.85585,37.2627351 40.08285,38.7867343 41.80835,37.2627351 C43.53385,35.738736 43.05085,34.5252367 43.05085,34.5252367 C43.05085,34.5252367 45.24235,35.3567362 46.22885,33.6712372 C47.21585,31.9857382 45.65785,30.0682393 45.65785,30.0682393 L49.32435,26.2832415 L53.21435,24.6737424 L48.71385,10.2612507 L43.39235,11.5232499 C43.39235,11.5232499 39.49035,12.0387496 36.55585,10.9667503 C33.62135,9.89475087 29.02485,10.9667503 29.02485,10.9667503 C29.02485,10.9667503 25.74985,9.42975114 21.36585,9.55625107 C16.98235,9.682251 14.43885,11.3217501 11.95485,10.6027505 L9.47135,9.88425088 Z" id="Fill-3" fill="#E7EBF6"></path>
                                    <path d="M11.0025675,30.068322 C11.0025675,30.068322 10.102568,31.8558252 11.6830672,32.7593268 C13.2635663,33.6628283 14.1190659,33.0968274 14.1190659,33.0968274 C14.1190659,33.0968274 13.853066,34.4443297 14.9970654,35.2523311 C16.1410648,36.0608325 17.9760638,35.2523311 17.9760638,35.2523311 C17.9760638,35.2523311 17.609064,37.4958351 18.6535635,38.037336 C19.6980629,38.578837 21.1770621,38.037336 21.1770621,38.037336 C21.1770621,38.037336 21.0920622,39.3698383 22.3135615,40.2333399 C23.5350609,41.0963414 25.13356,39.8973393 25.13356,39.8973393 L27.8745586,35.5903317 C27.8745586,35.5903317 28.1310584,34.1023291 26.8920591,33.2228276 C25.6530597,32.343826 24.2145605,33.0968274 24.2145605,33.0968274 C24.2145605,33.0968274 24.2145605,31.8243251 23.215061,31.1048239 C22.2160616,30.3853226 20.1375627,31.2248241 20.1375627,31.2248241 C20.1375627,31.2248241 20.0580627,29.7788215 18.8590634,29.1028204 C17.659564,28.4268192 16.8185644,29.1028204 16.8185644,29.1028204 C16.8185644,29.1028204 16.8605644,27.3478173 15.5015651,26.628316 C14.1425659,25.9093148 12.7040666,27.5478176 12.7040666,27.5478176 L11.0025675,30.068322 Z" id="Fill-5" fill="#FFFFFF"></path>
                                    <path d="M48.7139028,10.2615 C48.7139028,10.2615 43.2604063,12.5165 39.5989087,11.9935 C35.9379111,11.4705 33.3569127,9.221 29.0249155,10.967 C24.6924183,12.7125 23.9079188,13.5625 23.1234193,15.066 C22.3389198,16.57 20.7694208,19.4465 20.7694208,19.4465 C20.7694208,19.4465 19.6469216,20.9685 20.9604207,22.169 C22.2734199,23.3695 25.3624179,22.5505 26.4659172,21.195 C27.5689165,19.839 28.222916,18.139 28.222916,18.139 L32.0149136,17.8775 C32.0149136,17.8775 33.9109124,20.689 35.7414112,22.5195 C37.57241,24.35 45.6579048,30.0685 45.6579048,30.0685 L49.3244024,26.2835 L53.0659,25.1805 L48.7139028,10.2615 Z" id="Fill-7" fill="#FFFFFF"></path>
                                    <path d="M53.5964418,25.91725 L57.630935,24.45075 C57.630935,24.45075 58.1639341,22.16625 56.5489368,15.60575 C54.9334395,9.04525 52.5799435,7.98875 52.5799435,7.98875 L48.71395,9.18875 L53.5964418,25.91725 Z" id="Fill-9" fill="#677BC5"></path>
                                    <path d="M32.6841511,18.9384413 C32.5971511,18.7355168 32.5411512,18.525595 32.5011512,18.3140584 C32.4151513,18.2397784 32.3651513,18.1913349 32.3626513,18.1886436 C32.1976515,18.0217826 31.9701517,17.9458878 31.7471519,17.9846426 L27.8926552,18.6359385 C27.5826554,18.6881499 27.3381557,18.9497448 27.2846557,19.2818519 C27.2596557,19.4357945 26.6381563,23.0529092 23.3086591,23.4027789 C22.6731597,23.468985 21.5576606,23.4808267 21.2271609,22.8042325 C21.113661,22.5717037 21.090161,22.2557445 21.134661,21.9021069 C20.5916615,21.6308233 20.1551618,21.1157074 20.0316619,20.3583741 C19.6026623,21.4257458 19.4686624,22.5905429 19.931162,23.5378824 C20.2711617,24.2333158 21.0366611,25.00895 22.7596596,25.00895 C22.9746594,25.00895 23.2051592,24.99657 23.451159,24.9712717 C26.6566562,24.6348585 28.148155,21.9037217 28.6101546,20.1102357 L31.6441519,19.5972729 C32.0341516,19.9304565 32.8116509,20.5220054 33.91265,21.0258178 C33.4321504,20.428348 33.0216508,19.7275321 32.6841511,18.9384413" id="Fill-11" fill="#3A427C" opacity="0.2"></path>
                                    <path d="M48.7139,10.27185 L43.7153972,11.6603524 C43.7153972,11.6603524 40.2493953,12.5528539 36.8918935,11.2838517 C33.3583915,9.94884945 30.51989,9.95884947 26.7138879,11.9103528 C22.0503853,14.3018569 23.0908859,16.1898601 21.548885,18.0213632 C20.0068842,19.8523663 19.4283839,23.0328718 23.3798861,22.6473711 C27.3313882,22.2618704 28.0058886,18.2138635 28.0058886,18.2138635 L31.8608907,17.6088625 C31.8608907,17.6088625 33.8948918,19.5218658 37.2443937,19.7848662" id="Stroke-13" stroke="#1C1F34" stroke-width="2" stroke-linecap="round" stroke-linejoin="round"></path>
                                    <path d="M31.8610036,17.6088 C36.5925067,24.7048054 45.1610124,30.0683095 45.1610124,30.0683095 C45.1610124,30.0683095 47.5965141,31.5513107 46.2290131,33.6713123 C44.8610122,35.7913139 42.3780106,34.4238129 42.3780106,34.4238129 C42.3780106,34.4238129 43.5620114,36.0648141 41.57901,37.4328152 C39.5955087,38.8003162 37.3175072,37.0908149 37.3175072,37.0908149 C37.3175072,37.0908149 38.2965079,38.595316 36.7235068,39.6208168 C35.1505058,40.6468176 32.6675041,39.6208168 32.6675041,39.6208168 C32.6675041,39.6208168 33.3725046,40.9203178 31.3895033,41.6043183 C29.406002,42.2878189 27.7650009,40.3048173 27.7650009,40.3048173 L26.4655,39.0053164" id="Stroke-15" stroke="#1C1F34" stroke-width="2" stroke-linecap="round" stroke-linejoin="round"></path>
                                    <path d="M23.2670427,31.0137839 C22.2975411,30.376783 20.9945389,30.6462833 20.3575378,31.6162847 L18.051034,35.1277897 C17.4140329,36.0977911 17.6835333,37.4002929 18.653535,38.0372938 C19.6230366,38.6742947 20.9255388,38.4042943 21.5625398,37.434793 L23.8695437,33.922788 C24.5065448,32.9532866 24.2365443,31.6507848 23.2670427,31.0137839 Z" id="Stroke-17" stroke="#1C1F34" stroke-width="2" stroke-linecap="round" stroke-linejoin="round"></path>
                                    <path d="M26.9271427,33.2098339 C25.9576411,32.572833 24.6551389,32.8423333 24.0181378,33.8123347 L21.711134,37.3238397 C21.0741329,38.2938411 21.3436333,39.5963429 22.313635,40.2333438 C23.2831366,40.8703447 24.5856388,40.6003443 25.2226398,39.630843 L27.5296437,36.118838 C28.1666448,35.1493366 27.8966443,33.8468348 26.9271427,33.2098339 Z" id="Stroke-19" stroke="#1C1F34" stroke-width="2" stroke-linecap="round" stroke-linejoin="round"></path>
                                    <path d="M19.0382209,29.1255046 C18.0897176,28.5025027 16.8152131,28.7660035 16.192211,29.7150064 L14.4077047,32.4065145 C13.7847026,33.3550174 14.0482035,34.6295212 14.9972068,35.2525231 C15.9457101,35.875525 17.2197145,35.6115242 17.8427167,34.6630213 L19.6277229,31.9715132 C20.2507251,31.0230103 19.9867242,29.7485065 19.0382209,29.1255046 Z" id="Stroke-21" stroke="#1C1F34" stroke-width="2" stroke-linecap="round" stroke-linejoin="round"></path>
                                    <path d="M15.6255708,26.6209534 C14.6770675,25.9979537 13.4025629,26.2614536 12.7795607,27.2104532 L11.0935548,29.9134523 C10.4705525,30.861952 10.7340535,32.1359515 11.6830568,32.7589513 C12.6315602,33.3824511 13.9055647,33.1184512 14.5285669,32.1699515 L16.2150729,29.4669525 C16.8380751,28.5184528 16.5740742,27.2439532 15.6255708,26.6209534 Z" id="Stroke-23" stroke="#1C1F34" stroke-width="2" stroke-linecap="round" stroke-linejoin="round"></path>
                                    <path d="M11.34375,29.3961 C11.34375,29.3961 10.26125,26.8901 8.49675,26.1671 C5.65875,25.0041 4.51825,24.8546 4.51825,24.8546" id="Stroke-25" stroke="#1C1F34" stroke-width="2" stroke-linecap="round" stroke-linejoin="round"></path>
                                    <path d="M29.58055,10.7545227 C29.58055,10.7545227 23.61555,8.85954788 19.27855,9.83553492 C14.94205,10.811522 15.65655,11.7750092 9.47155,9.88403427" id="Stroke-27" stroke="#1C1F34" stroke-width="2" stroke-linecap="round" stroke-linejoin="round"></path>
                                    <path d="M45.161,30.0683 C45.161,30.0683 47.639,29.1728 49.652,25.7568" id="Stroke-29" stroke="#1C1F34" stroke-width="2" stroke-linecap="round" stroke-linejoin="round"></path>
                                    <path d="M42.3781,34.42365 C42.3781,34.42365 37.6836,31.36915 32.0106,25.51315" id="Stroke-31" stroke="#1C1F34" stroke-width="2" stroke-linecap="round" stroke-linejoin="round"></path>
                                    <path d="M37.8176,37.0907 C37.8176,37.0907 32.1751,32.9982 28.6976,29.1032" id="Stroke-33" stroke="#1C1F34" stroke-width="2" stroke-linecap="round" stroke-linejoin="round"></path>
                                    <path d="M33.1674,39.62095 C33.1674,39.62095 30.2494,37.41795 27.8724,34.90445" id="Stroke-35" stroke="#1C1F34" stroke-width="2" stroke-linecap="round" stroke-linejoin="round"></path>
                                    <path d="M49.0577,26.6493 L52.5787,25.1803" id="Stroke-37" stroke="#1C1F34" stroke-width="2" stroke-linecap="round" stroke-linejoin="round"></path>
                                    <path d="M53.5964432,25.91725 L48.48095,9.26125 L52.5799446,7.98875 C52.5799446,7.98875 58.0194374,13.73325 57.6309379,24.45075 L53.5964432,25.91725 Z" id="Stroke-39" stroke="#1C1F34" stroke-width="2" stroke-linecap="round" stroke-linejoin="round"></path>
                                    <path d="M4.30435676,25.55125 L9.41985,8.89525 L5.32085541,7.62275 C5.32085541,7.62275 -0.118637403,13.36725 0.269862084,24.08475 L4.30435676,25.55125 Z" id="Stroke-41" stroke="#1C1F34" stroke-width="2" stroke-linecap="round" stroke-linejoin="round"></path>
                                    <path d="M26.34315,3.11635 L27.50665,6.31135" id="Stroke-43" stroke="#1C1F34" stroke-linecap="round" stroke-linejoin="round"></path>
                                    <path d="M30.5199,6.7645 L33.1674,0.25" id="Stroke-45" stroke="#1C1F34" stroke-linecap="round" stroke-linejoin="round"></path>
                                </g>
                            </g>
                        </g>
                    </g>
                </g>
            </g>
        </g>
    </g>
</svg>
