<svg width="50px" height="46px" viewBox="0 0 50 46" version="1.1" xmlns="http://www.w3.org/2000/svg" xmlns:xlink="http://www.w3.org/1999/xlink">
    <g id="Page-1" stroke="none" stroke-width="1" fill="none" fill-rule="evenodd">
        <g id="estimate---1" transform="translate(-776.000000, -496.000000)">
            <g id="top" transform="translate(0.000000, 1.000000)">
                <g id="Group" transform="translate(724.000000, 274.000000)">
                    <g id="Group-18">
                        <g id="Group-12" transform="translate(0.000000, 180.000000)">
                            <g id="Group-48" transform="translate(29.000000, 41.000000)">
                                <g id="junk" transform="translate(24.000000, 0.000000)">
                                    <path d="M45.689,8.5 L3.249,8.5 C2.007,8.5 1,9.507 1,10.749 L1,39.189 C1,40.431 2.007,41.438 3.249,41.438 L45.689,41.438 C46.931,41.438 47.938,40.431 47.938,39.189 L47.938,10.749 C47.938,9.507 46.931,8.5 45.689,8.5 Z" id="Stroke-5" fill="#FFFFFF"></path>
                                    <path d="M34.03475,12.92475 C35.45825,21.14425 35.45825,29.36325 34.03475,37.58275 C24.54575,38.81575 15.05625,38.81575 5.56725,37.58275 C4.14425,29.36325 4.14425,21.14425 5.56725,12.92475 C15.05625,11.69175 24.54575,11.69175 34.03475,12.92475 Z" id="Fill-1" fill="#677BC5"></path>
                                    <path d="M34.03475,12.92475 C24.54575,11.69175 15.05625,11.69175 5.56725,12.92475 C4.14425,21.14425 4.14425,29.36325 5.56725,37.58275 C15.05625,38.81575 24.54575,38.81575 34.03475,37.58275 C35.45825,29.36325 35.45825,21.14425 34.03475,12.92475 Z" id="Stroke-3" stroke="#1C1F34" stroke-width="2" stroke-linecap="round" stroke-linejoin="round"></path>
                                    <path d="M45.689,8.5 L3.249,8.5 C2.007,8.5 1,9.507 1,10.749 L1,39.189 C1,40.431 2.007,41.438 3.249,41.438 L45.689,41.438 C46.931,41.438 47.938,40.431 47.938,39.189 L47.938,10.749 C47.938,9.507 46.931,8.5 45.689,8.5 Z" id="Stroke-5" stroke="#1C1F34" stroke-width="2" stroke-linecap="round" stroke-linejoin="round"></path>
                                    <polygon id="Fill-7" fill="#D6D7E0" points="7.298 44.126 3.5 44.126 3 41.5 7.798 41.5"></polygon>
                                    <polygon id="Stroke-9" stroke="#1C1F34" stroke-width="2" stroke-linecap="round" stroke-linejoin="round" points="7.298 44.126 3.5 44.126 3 41.5 7.798 41.5"></polygon>
                                    <path d="M0,44.25 L48,44.25" id="Stroke-16" stroke="#1C1F34" stroke-width="2" stroke-linecap="round" stroke-linejoin="round"></path>
                                    <polygon id="Fill-11" fill="#D6D7E0" points="45.798 44.126 42 44.126 41.5 41.5 46.298 41.5"></polygon>
                                    <polygon id="Stroke-13" stroke="#1C1F34" stroke-width="2" stroke-linecap="round" stroke-linejoin="round" points="45.798 44.126 42 44.126 41.5 41.5 46.298 41.5"></polygon>
                                    <polygon id="Stroke-15" stroke="#1C1F34" stroke-linecap="round" stroke-linejoin="round" points="39 37.643 43.844 37.643 43.844 29.5 39 29.5"></polygon>
                                    <path d="M43.844,22.922 C43.844,21.5845 42.7595,20.5 41.422,20.5 C40.0845,20.5 39,21.5845 39,22.922 C39,24.2595 40.0845,25.344 41.422,25.344 C42.7595,25.344 43.844,24.2595 43.844,22.922 Z" id="Stroke-17" stroke="#1C1F34" stroke-linecap="round" stroke-linejoin="round"></path>
                                    <path d="M43.844,15.422 C43.844,14.0845 42.7595,13 41.422,13 C40.0845,13 39,14.0845 39,15.422 C39,16.7595 40.0845,17.844 41.422,17.844 C42.7595,17.844 43.844,16.7595 43.844,15.422 Z" id="Stroke-18" stroke="#1C1F34" stroke-linecap="round" stroke-linejoin="round"></path>
                                    <polyline id="Stroke-19" stroke="#1C1F34" stroke-linecap="round" stroke-linejoin="round" points="22.905 12.5 22.905 15.4595 21 18.4275 21.9525 20.5225 21.9525 23.402 24.5085 25.3665 26.0805 20.5225 29.179 19.5225"></polyline>
                                    <polyline id="Stroke-20" stroke="#1C1F34" stroke-linecap="round" stroke-linejoin="round" points="34.857 22 30.623 22.952 28.4005 25.374 24.5 25.374 26.2835 29.1215 30.2 30.607 29.1705 33.9765 30.729 37.5475"></polyline>
                                    <polygon id="Fill-21" fill="#1C1F34" points="26.9105 29.2475 29.0275 25 24.5 25.273"></polygon>
                                    <polyline id="Stroke-22" stroke="#1C1F34" stroke-linecap="round" stroke-linejoin="round" points="12.9795 37.5715 12.4795 34.9025 11.5 34.5"></polyline>
                                    <path d="M29.252,13 L28.5,14.215" id="Stroke-23" stroke="#1C1F34" stroke-linecap="round" stroke-linejoin="round"></path>
                                    <path d="M26,6.9215 L31.4095,1" id="Stroke-25" stroke="#1C1F34" stroke-linecap="round" stroke-linejoin="round"></path>
                                    <path d="M32.3085,1.1545 C32.3085,0.517 31.7915,0 31.154,0 C30.5165,0 30,0.517 30,1.1545 C30,1.792 30.5165,2.309 31.154,2.309 C31.7915,2.309 32.3085,1.792 32.3085,1.1545" id="Fill-26" fill="#1C1F34"></path>
                                    <path d="M23.4095,6.9215 L18,1" id="Stroke-27" stroke="#1C1F34" stroke-linecap="round" stroke-linejoin="round"></path>
                                    <path d="M17,1.1545 C17,0.517 17.517,0 18.1545,0 C18.792,0 19.3085,0.517 19.3085,1.1545 C19.3085,1.792 18.792,2.309 18.1545,2.309 C17.517,2.309 17,1.792 17,1.1545" id="Fill-28" fill="#1C1F34"></path>
                                    <path d="M27.407,7.7035 C27.407,6.76274709 26.1965,6 24.7035,6 C23.2105,6 22,6.76274709 22,7.7035" id="Stroke-24" fill="#FFFFFF"></path>
                                    <path d="M27.407,8.2035 C27.407,6.98662354 26.1965,6 24.7035,6 C23.2105,6 22,6.98662354 22,8.2035" id="Stroke-24-Copy" stroke="#1C1F34" stroke-width="2" stroke-linecap="round" stroke-linejoin="round"></path>
                                </g>
                            </g>
                        </g>
                    </g>
                </g>
            </g>
        </g>
    </g>
</svg>
