<svg width="102px" height="48px" viewBox="0 0 102 48" version="1.1" xmlns="http://www.w3.org/2000/svg" xmlns:xlink="http://www.w3.org/1999/xlink">
    <g id="Page-1" stroke="none" stroke-width="1" fill="none" fill-rule="evenodd">
        <g id="estimate---1" transform="translate(-829.000000, -16.000000)" fill="#3B4478">
            <g id="top">
                <g transform="translate(360.000000, 16.000000)" id="menu">
                    <g transform="translate(469.000000, 0.000000)">
                        <path d="M99.6673785,6.43282594 C98.6678512,6.73315001 96.8217355,7.25225146 93.9489756,7.51219804 C91.6562453,7.72068312 88.0225864,7.59532817 87.9165595,7.59532817 C77.9028463,7.60957905 75.2722399,13.8393243 75.2722399,17.6387669 C75.2722399,19.519355 75.8346436,21.7108235 77.3965746,23.5212129 C76.42091,24.4403946 75.0935398,26.1499722 75.0935398,28.6473067 C75.0935398,31.9110219 77.1758433,33.5847084 77.1758433,33.5847084 C77.1758433,33.5847084 74.9265,36.2232322 74.9265,39.471113 C74.9265,45.6385766 79.7665879,48 87.9160171,48 C95.5708349,48 100.919093,45.4417034 100.919093,39.0921452 C100.919093,32.3274642 96.3100404,29.7649451 91.0263207,29.7649451 C89.6609869,29.7649451 85.1519958,29.7638895 83.5385428,29.7638895 C82.6116886,29.7638895 81.6983928,28.9829941 81.6983928,27.9123309 C81.6983928,27.3013904 81.9725443,26.8548629 82.3326561,26.5305235 C83.7684938,26.9485492 85.4687207,27.1902864 87.4753682,27.1902864 L88.355039,27.1902864 C97.9492544,27.1902864 100.558438,21.6891833 100.558438,17.6387669 C100.558438,16.2171098 100.189649,14.4544872 99.2039514,12.804816 C100.100164,12.5694126 100.872994,12.3379678 101.400959,12.1078425 C101.765952,11.9492355 102.100845,11.5773931 101.971769,11.0699035 C101.622775,9.7036665 100.868926,7.23140295 100.822014,7.0601285 C100.709751,6.6558258 100.27561,6.24993966 99.6673785,6.43282594 Z M83.9011,17.3999423 C83.9011,14.2898247 85.8833452,12.5979313 88.0608322,12.585 C90.2377767,12.5979313 91.9296,14.2898247 91.9296,17.3999423 C91.9296,20.2991999 90.3109924,22.1842716 87.9149432,22.1943 C85.5199788,22.1842716 83.9011,20.2991999 83.9011,17.3999423 Z M90.0433213,35.6777 C92.2031761,35.6777 93.2347,37.0753342 93.2347,38.8485033 C93.2347,40.4540937 92.3940786,42.246 88.1538213,42.246 C83.7570999,42.246 82.9238,40.6332843 82.9238,39.2282608 C82.9238,36.9315066 84.2875049,35.6813947 84.2875049,35.6813947 C84.2875049,35.6813947 86.3638399,35.6777 90.0433213,35.6777 Z M70.5620785,6.43282594 C71.1703096,6.24993966 71.6044505,6.6558258 71.7167143,7.0601285 C71.7636265,7.23140295 72.5174751,9.7036665 72.8664691,11.0699035 C72.9955453,11.5773931 72.6606521,11.9492355 72.2956592,12.1078425 C71.767694,12.3379678 70.9948636,12.5694126 70.0986514,12.804816 C71.0843492,14.4544872 71.4531385,16.2171098 71.4531385,17.6387669 C71.4531385,21.6891833 68.8439544,27.1902864 59.249739,27.1902864 L58.3700682,27.1902864 C56.3634207,27.1902864 54.6631938,26.9485492 53.2273561,26.5305235 C52.8672443,26.8548629 52.5930928,27.3013904 52.5930928,27.9123309 C52.5930928,28.9829941 53.5063886,29.7638895 54.4332428,29.7638895 C56.0466958,29.7638895 60.5556869,29.7649451 61.9210207,29.7649451 C67.2047404,29.7649451 71.8137927,32.3274642 71.8137927,39.0921452 C71.8137927,45.4417034 66.4655349,48 58.8107171,48 C50.6612879,48 45.8212,45.6385766 45.8212,39.471113 C45.8212,36.2232322 48.0702722,33.5847084 48.0702722,33.5847084 C48.0702722,33.5847084 45.9882398,31.9110219 45.9882398,28.6473067 C45.9882398,26.1499722 47.31561,24.4403946 48.2912746,23.5212129 C46.7293436,21.7108235 46.1669399,19.519355 46.1669399,17.6387669 C46.1669399,13.8393243 48.7975463,7.60957905 58.8112595,7.59532817 C58.9172864,7.59532817 62.5509453,7.72068312 64.8436756,7.51219804 C67.7164355,7.25225146 69.5625512,6.73315001 70.5620785,6.43282594 Z M54.7958,17.3999423 C54.7958,20.2991999 56.4146788,22.1842716 58.8096432,22.1943 C61.2056924,22.1842716 62.8243,20.2991999 62.8243,17.3999423 C62.8243,14.2898247 61.1324767,12.5979313 58.9555322,12.585 C56.7780452,12.5979313 54.7958,14.2898247 54.7958,17.3999423 Z M60.9380213,35.6777 C57.2585399,35.6777 55.1822049,35.6813947 55.1822049,35.6813947 C55.1822049,35.6813947 53.8185,36.9315066 53.8185,39.2282608 C53.8185,40.6332843 54.6517999,42.246 59.0485213,42.246 C63.2887786,42.246 64.1294,40.4540937 64.1294,38.8485033 C64.1294,37.0753342 63.0978761,35.6777 60.9380213,35.6777 Z M11.2263738,28.0823399 C11.8419262,28.0823399 12.3655524,28.023489 12.7793555,27.9519708 C13.4122627,27.8424502 13.8201,28.3631348 13.8201,28.8149402 L13.8201,33.786911 C13.8201,34.1584892 13.5950302,34.5129137 13.1511274,34.6295597 C12.381009,34.8303914 10.9541207,35.1067 8.91683211,35.1067 C5.70918052,35.1067 0,34.3886144 0,26.8029283 C0,20.1271867 0.000271168449,5.37304831 0.000271168449,1.93093503 C0.000271168449,1.46382313 0.384788029,1.14476195 0.747882582,1.08828627 C1.02691492,1.04447804 5.55108932,0.343546285 7.64369624,0.0115537603 C8.19010066,-0.0744792788 8.69121996,0.330087129 8.69121996,0.887718453 L8.69121996,25.8000892 C8.69121996,27.5276115 9.63922485,28.0823399 11.2263738,28.0823399 Z M33.9585207,8.0844 L40.8643723,8.0844 C41.3722712,8.0844 41.7595,8.48553684 41.7595,8.92678737 L41.7595,33.7291838 C41.7595,34.3884206 41.1916729,34.6235606 40.8828118,34.6235606 L35.0209594,34.6235606 C34.4965193,34.6235606 34.2337569,34.2337717 34.1694899,33.9967843 C34.1233912,33.823926 33.5558353,31.9195816 33.2494147,30.8916685 C31.3590982,32.6474339 28.0353842,35.1073 24.2458026,35.1073 C18.266263,35.1073 17.0056,30.9682012 17.0056,26.6995246 L17.0056,8.94314953 C17.0056,8.41665742 17.4706542,8.0844 17.8746955,8.0844 L24.7862416,8.0844 C25.2952252,8.0844 25.7006223,8.46231313 25.7006223,8.95608091 L25.7006223,25.2794474 C25.7006223,27.2679777 26.3839672,28.0103448 27.9298996,28.0103448 C30.3725867,28.0103448 32.4307566,25.9948961 33.0576985,25.3119078 C33.0576985,25.3119078 33.0644777,9.2007216 33.0644777,8.91068911 C33.0644777,8.5245949 33.4132006,8.0844 33.9585207,8.0844 Z" id="Logo"></path>
                    </g>
                </g>
            </g>
        </g>
    </g>
</svg>