
<svg width="56px" height="49px" viewBox="0 0 56 49" version="1.1" xmlns="http://www.w3.org/2000/svg" xmlns:xlink="http://www.w3.org/1999/xlink">
    <g id="Page-1" stroke="none" stroke-width="1" fill="none" fill-rule="evenodd">
        <g id="estimate---1" transform="translate(-932.000000, -312.000000)">
            <g id="top">
                <g id="Group" transform="translate(724.000000, 275.000000)">
                    <g id="Group-18">
                        <g id="Group-15" transform="translate(159.000000, 0.000000)">
                            <g id="Group-6" transform="translate(29.000000, 38.000000)">
                                <g id="Group-42">
                                    <g id="dump-copy" transform="translate(21.000000, 0.000000)">
                                        <path d="M6.31425,24.434 L32.43775,24.434 L6.31425,24.434 Z" id="Fill-7" fill="#8EAFFF"></path>
                                        <path d="M6.31425,24.434 L32.43775,24.434 L6.31425,24.434 Z" id="Fill-8" fill="#8EAFFF"></path>
                                        <g id="Group-22" transform="translate(0.000000, 0.384950)">
                                            <path d="M3.5,45.86505 L51.5,45.86505" id="Stroke-16" stroke="#1C1F34" stroke-width="2" stroke-linecap="round" stroke-linejoin="round"></path>
                                            <g id="Page-1-Copy" transform="translate(0.000000, 0.115050)">
                                                <path d="M7.4903,0.25 L38.9943,0.25 C41.3773,0.25 43.3093,2.182 43.3093,4.5655 L43.3093,41.1965 C43.3093,43.58 41.3773,45.512 38.9943,45.512 L7.4903,45.512 C5.1068,45.512 3.1748,43.58 3.1748,41.1965 L3.1748,4.5655 C3.1748,2.182 5.1068,0.25 7.4903,0.25 Z" id="Fill-1" fill="#E7EBF6"></path>
                                                <path d="M41.70325,4.84495 C41.70325,3.19445 40.36525,1.85645 38.71475,1.85645 L7.76925,1.85645 C6.11925,1.85645 4.78125,3.19445 4.78125,4.84495 L4.78125,40.91745 C4.78125,42.56795 6.11925,43.90595 7.76925,43.90595 L38.71475,43.90595 C40.36525,43.90595 41.70325,42.56795 41.70325,40.91745 L41.70325,4.84495 Z" id="Fill-5" fill="#FFFFFF"></path>
                                                <polygon id="Fill-9" fill="#677BC5" points="0.25 10.3525 3.175 10.3525 3.175 6.032 0.25 6.032"></polygon>
                                                <polygon id="Stroke-11" stroke="#1C1F34" stroke-linecap="round" stroke-linejoin="round" points="0.25 10.3525 3.175 10.3525 3.175 6.032 0.25 6.032"></polygon>
                                                <g id="Group-14" transform="translate(11.000000, 8.762000)">
                                                    <path d="M0.70985,1.0377 L0.03485,0.3627" id="Fill-12" fill="#FFFFFF"></path>
                                                    <path d="M0.70985,1.0377 L0.03485,0.3627" id="Stroke-13" stroke="#1C1F34" stroke-linecap="round" stroke-linejoin="round"></path>
                                                </g>
                                                <g id="Group-17" transform="translate(11.000000, 9.762000)">
                                                    <path d="M0.70985,0.1766 L0.03485,0.8516" id="Fill-15" fill="#FFFFFF"></path>
                                                    <path d="M0.70985,0.1766 L0.03485,0.8516" id="Stroke-16" stroke="#1C1F34" stroke-linecap="round" stroke-linejoin="round"></path>
                                                </g>
                                                <g id="Group-20" transform="translate(11.500000, 9.762000)">
                                                    <path d="M0.3487,0.1766 L1.0237,0.8516" id="Fill-18" fill="#FFFFFF"></path>
                                                    <path d="M0.3487,0.1766 L1.0237,0.8516" id="Stroke-19" stroke="#1C1F34" stroke-linecap="round" stroke-linejoin="round"></path>
                                                </g>
                                                <g id="Group-23" transform="translate(11.500000, 8.762000)">
                                                    <path d="M0.3487,1.0377 L1.0237,0.3627" id="Fill-21" fill="#FFFFFF"></path>
                                                    <path d="M0.3487,1.0377 L1.0237,0.3627" id="Stroke-22" stroke="#1C1F34" stroke-linecap="round" stroke-linejoin="round"></path>
                                                </g>
                                                <g id="Group-26" transform="translate(22.000000, 8.762000)">
                                                    <path d="M1.1728,1.0377 L0.4978,0.3627" id="Fill-24" fill="#FFFFFF"></path>
                                                    <path d="M1.1728,1.0377 L0.4978,0.3627" id="Stroke-25" stroke="#1C1F34" stroke-linecap="round" stroke-linejoin="round"></path>
                                                </g>
                                                <g id="Group-29" transform="translate(22.000000, 9.762000)">
                                                    <path d="M1.1728,0.1766 L0.4978,0.8516" id="Fill-27" fill="#FFFFFF"></path>
                                                    <path d="M1.1728,0.1766 L0.4978,0.8516" id="Stroke-28" stroke="#1C1F34" stroke-linecap="round" stroke-linejoin="round"></path>
                                                </g>
                                                <g id="Group-32" transform="translate(23.000000, 9.762000)">
                                                    <path d="M0.31165,0.1766 L0.98665,0.8516" id="Fill-30" fill="#FFFFFF"></path>
                                                    <path d="M0.31165,0.1766 L0.98665,0.8516" id="Stroke-31" stroke="#1C1F34" stroke-linecap="round" stroke-linejoin="round"></path>
                                                </g>
                                                <g id="Group-35" transform="translate(23.000000, 8.762000)">
                                                    <path d="M0.31165,1.0377 L0.98665,0.3627" id="Fill-33" fill="#FFFFFF"></path>
                                                    <path d="M0.31165,1.0377 L0.98665,0.3627" id="Stroke-34" stroke="#1C1F34" stroke-linecap="round" stroke-linejoin="round"></path>
                                                </g>
                                                <g id="Group-38" transform="translate(33.500000, 8.762000)">
                                                    <path d="M1.13565,1.0377 L0.46065,0.3627" id="Fill-36" fill="#FFFFFF"></path>
                                                    <path d="M1.13565,1.0377 L0.46065,0.3627" id="Stroke-37" stroke="#1C1F34" stroke-linecap="round" stroke-linejoin="round"></path>
                                                </g>
                                                <g id="Group-41" transform="translate(33.500000, 9.762000)">
                                                    <path d="M1.13565,0.1766 L0.46065,0.8516" id="Fill-39" fill="#FFFFFF"></path>
                                                    <path d="M1.13565,0.1766 L0.46065,0.8516" id="Stroke-40" stroke="#1C1F34" stroke-linecap="round" stroke-linejoin="round"></path>
                                                </g>
                                                <g id="Group-44" transform="translate(34.500000, 9.762000)">
                                                    <path d="M0.2745,0.1766 L0.9495,0.8516" id="Fill-42" fill="#FFFFFF"></path>
                                                    <path d="M0.2745,0.1766 L0.9495,0.8516" id="Stroke-43" stroke="#1C1F34" stroke-linecap="round" stroke-linejoin="round"></path>
                                                </g>
                                                <g id="Group-47" transform="translate(34.500000, 8.762000)">
                                                    <path d="M0.2745,1.0377 L0.9495,0.3627" id="Fill-45" fill="#FFFFFF"></path>
                                                    <path d="M0.2745,1.0377 L0.9495,0.3627" id="Stroke-46" stroke="#1C1F34" stroke-linecap="round" stroke-linejoin="round"></path>
                                                </g>
                                                <g id="Group-50" transform="translate(11.000000, 22.262000)">
                                                    <path d="M0.70985,0.7996 L0.03485,0.1246" id="Fill-48" fill="#FFFFFF"></path>
                                                    <path d="M0.70985,0.7996 L0.03485,0.1246" id="Stroke-49" stroke="#1C1F34" stroke-linecap="round" stroke-linejoin="round"></path>
                                                </g>
                                                <g id="Group-53" transform="translate(11.000000, 22.762000)">
                                                    <path d="M0.70985,0.43845 L0.03485,1.11345" id="Fill-51" fill="#FFFFFF"></path>
                                                    <path d="M0.70985,0.43845 L0.03485,1.11345" id="Stroke-52" stroke="#1C1F34" stroke-linecap="round" stroke-linejoin="round"></path>
                                                </g>
                                                <g id="Group-56" transform="translate(11.500000, 22.762000)">
                                                    <path d="M0.3487,0.43845 L1.0237,1.11345" id="Fill-54" fill="#FFFFFF"></path>
                                                    <path d="M0.3487,0.43845 L1.0237,1.11345" id="Stroke-55" stroke="#1C1F34" stroke-linecap="round" stroke-linejoin="round"></path>
                                                </g>
                                                <g id="Group-59" transform="translate(11.500000, 22.262000)">
                                                    <path d="M0.3487,0.7996 L1.0237,0.1246" id="Fill-57" fill="#FFFFFF"></path>
                                                    <path d="M0.3487,0.7996 L1.0237,0.1246" id="Stroke-58" stroke="#1C1F34" stroke-linecap="round" stroke-linejoin="round"></path>
                                                </g>
                                                <g id="Group-62" transform="translate(22.000000, 22.262000)">
                                                    <path d="M1.1728,0.7996 L0.4978,0.1246" id="Fill-60" fill="#FFFFFF"></path>
                                                    <path d="M1.1728,0.7996 L0.4978,0.1246" id="Stroke-61" stroke="#1C1F34" stroke-width="1.5" stroke-linecap="round" stroke-linejoin="round"></path>
                                                </g>
                                                <g id="Group-65" transform="translate(22.000000, 22.762000)">
                                                    <path d="M1.1728,0.43845 L0.4978,1.11345" id="Fill-63" fill="#FFFFFF"></path>
                                                    <path d="M1.1728,0.43845 L0.4978,1.11345" id="Stroke-64" stroke="#1C1F34" stroke-width="1.5" stroke-linecap="round" stroke-linejoin="round"></path>
                                                </g>
                                                <g id="Group-68" transform="translate(23.000000, 22.762000)">
                                                    <path d="M0.31165,0.43845 L0.98665,1.11345" id="Fill-66" fill="#FFFFFF"></path>
                                                    <path d="M0.31165,0.43845 L0.98665,1.11345" id="Stroke-67" stroke="#1C1F34" stroke-width="1.5" stroke-linecap="round" stroke-linejoin="round"></path>
                                                </g>
                                                <g id="Group-71" transform="translate(23.000000, 22.262000)">
                                                    <path d="M0.31165,0.7996 L0.98665,0.1246" id="Fill-69" fill="#FFFFFF"></path>
                                                    <path d="M0.31165,0.7996 L0.98665,0.1246" id="Stroke-70" stroke="#1C1F34" stroke-width="1.5" stroke-linecap="round" stroke-linejoin="round"></path>
                                                </g>
                                                <g id="Group-74" transform="translate(33.500000, 22.262000)">
                                                    <path d="M1.13565,0.7996 L0.46065,0.1246" id="Fill-72" fill="#FFFFFF"></path>
                                                    <path d="M1.13565,0.7996 L0.46065,0.1246" id="Stroke-73" stroke="#1C1F34" stroke-width="1.5" stroke-linecap="round" stroke-linejoin="round"></path>
                                                </g>
                                                <g id="Group-77" transform="translate(33.500000, 22.762000)">
                                                    <path d="M1.13565,0.43845 L0.46065,1.11345" id="Fill-75" fill="#FFFFFF"></path>
                                                    <path d="M1.13565,0.43845 L0.46065,1.11345" id="Stroke-76" stroke="#1C1F34" stroke-width="1.5" stroke-linecap="round" stroke-linejoin="round"></path>
                                                </g>
                                                <g id="Group-80" transform="translate(34.500000, 22.762000)">
                                                    <path d="M0.2745,0.43845 L0.9495,1.11345" id="Fill-78" fill="#FFFFFF"></path>
                                                    <path d="M0.2745,0.43845 L0.9495,1.11345" id="Stroke-79" stroke="#1C1F34" stroke-width="1.5" stroke-linecap="round" stroke-linejoin="round"></path>
                                                </g>
                                                <g id="Group-83" transform="translate(34.500000, 22.262000)">
                                                    <path d="M0.2745,0.7996 L0.9495,0.1246" id="Fill-81" fill="#FFFFFF"></path>
                                                    <path d="M0.2745,0.7996 L0.9495,0.1246" id="Stroke-82" stroke="#1C1F34" stroke-width="1.5" stroke-linecap="round" stroke-linejoin="round"></path>
                                                </g>
                                                <g id="Group-86" transform="translate(11.000000, 35.262000)">
                                                    <path d="M0.70985,1.06145 L0.03485,0.38645" id="Fill-84" fill="#FFFFFF"></path>
                                                    <path d="M0.70985,1.06145 L0.03485,0.38645" id="Stroke-85" stroke="#1C1F34" stroke-width="1.5" stroke-linecap="round" stroke-linejoin="round"></path>
                                                </g>
                                                <g id="Group-89" transform="translate(11.000000, 36.262000)">
                                                    <path d="M0.70985,0.2003 L0.03485,0.8753" id="Fill-87" fill="#FFFFFF"></path>
                                                    <path d="M0.70985,0.2003 L0.03485,0.8753" id="Stroke-88" stroke="#1C1F34" stroke-width="1.5" stroke-linecap="round" stroke-linejoin="round"></path>
                                                </g>
                                                <g id="Group-92" transform="translate(11.500000, 36.262000)">
                                                    <path d="M0.3487,0.2003 L1.0237,0.8753" id="Fill-90" fill="#FFFFFF"></path>
                                                    <path d="M0.3487,0.2003 L1.0237,0.8753" id="Stroke-91" stroke="#1C1F34" stroke-width="1.5" stroke-linecap="round" stroke-linejoin="round"></path>
                                                </g>
                                                <g id="Group-95" transform="translate(11.500000, 35.262000)">
                                                    <path d="M0.3487,1.06145 L1.0237,0.38645" id="Fill-93" fill="#FFFFFF"></path>
                                                    <path d="M0.3487,1.06145 L1.0237,0.38645" id="Stroke-94" stroke="#1C1F34" stroke-width="1.5" stroke-linecap="round" stroke-linejoin="round"></path>
                                                </g>
                                                <path d="M7.4903,0.25 L38.9943,0.25 C41.3773,0.25 43.3093,2.182 43.3093,4.5655 L43.3093,41.1965 C43.3093,43.58 41.3773,45.512 38.9943,45.512 L7.4903,45.512 C5.1068,45.512 3.1748,43.58 3.1748,41.1965 L3.1748,4.5655 C3.1748,2.182 5.1068,0.25 7.4903,0.25 Z" id="Stroke-96" stroke="#1C1F34" stroke-width="2" stroke-linecap="round" stroke-linejoin="round"></path>
                                            </g>
                                            <g id="Group-3" transform="translate(17.500000, 13.615050)">
                                                <path d="M32.944,9.31405 C32.177,9.31405 31.4955,9.52705 30.894,9.91555 C30.9695,9.54655 31.0115,9.17055 31.0115,8.78805 C31.0115,4.14055 25.289,0.37255 18.23,0.37255 C11.1705,0.37255 5.448,4.14055 5.448,8.78805 C5.448,9.17005 5.4885,9.54555 5.5635,9.91405 C4.962,9.52655 4.2815,9.31405 3.5155,9.31405 C-0.4945,9.31405 0.16,13.40605 0.16,13.40605 C0.3815,15.35355 2.6305,19.32555 2.8355,28.31455 C2.8475,28.83355 3.27,29.24905 3.789,29.24905 L18.23,29.24905 L32.6705,29.24905 C33.1895,29.24905 33.612,28.83355 33.624,28.31455 C33.829,19.32555 36.078,15.35355 36.2995,13.40605 C36.2995,13.40605 36.954,9.31405 32.944,9.31405" id="Fill-22" fill="#677BC5"></path>
                                                <path d="M18.22975,29.3491 L3.78925,29.3491 C3.26975,29.2491 2.84775,28.8336 2.83575,28.3146 C2.63025,19.3256 0.38125,15.3536 0.16025,13.4061 C0.16025,13.4061 -0.49475,9.3141 3.51525,9.3141 C7.52575,9.3141 9.21575,15.1031 9.21575,21.6506 L9.21575,24.1551 L18.22975,24.1551" id="Stroke-23" stroke="#1C1F34" stroke-width="2" stroke-linecap="round" stroke-linejoin="round"></path>
                                                <path d="M9.2157,24.15535 L9.2157,29.24935" id="Stroke-24" stroke="#1C1F34" stroke-width="1.5" stroke-linecap="round" stroke-linejoin="round"></path>
                                                <path d="M18.22975,0.37445 C18.22975,0.37445 5.44775,0.02045 5.44775,9.49395" id="Stroke-25" stroke="#1C1F34" stroke-width="2" stroke-linecap="round" stroke-linejoin="round"></path>
                                                <path d="M18.22975,29.3491 L32.67025,29.3491 C33.18975,29.2491 33.61175,28.8336 33.62375,28.3146 C33.82925,19.3256 36.07825,15.3536 36.29925,13.4061 C36.29925,13.4061 36.95425,9.3141 32.94425,9.3141 C28.93375,9.3141 27.24375,15.1031 27.24375,21.6506 L27.24375,24.1551 L18.22975,24.1551" id="Stroke-26" stroke="#1C1F34" stroke-width="2" stroke-linecap="round" stroke-linejoin="round"></path>
                                                <path d="M27.2438,18.13875 C26.8668,17.31625 25.3158,17.35375 25.3158,17.35375 L11.1438,17.35375 C11.1438,17.35375 9.5923,17.31625 9.2158,18.13875" id="Stroke-27" stroke="#1C1F34" stroke-linecap="round" stroke-linejoin="round"></path>
                                                <path d="M27.2438,24.15535 L27.2438,29.24935" id="Stroke-28" stroke="#1C1F34" stroke-width="1.5" stroke-linecap="round" stroke-linejoin="round"></path>
                                                <path d="M18.22975,0.37445 C18.22975,0.37445 31.01175,0.02045 31.01175,9.49395" id="Stroke-29" stroke="#1C1F34" stroke-width="2" stroke-linecap="round" stroke-linejoin="round"></path>
                                                <polygon id="Fill-30" fill="#DEDEDE" points="5.64465 32.18795 7.98365 32.18795 8.48365 29.34895 5.14465 29.34895"></polygon>
                                                <polygon id="Fill-31" fill="#DEDEDE" points="28.50035 32.18795 30.83935 32.18795 31.33935 29.34895 28.00035 29.34895"></polygon>
                                                <polygon id="Stroke-32" stroke="#1C1F34" stroke-width="2" stroke-linecap="round" stroke-linejoin="round" points="5.64465 32.18795 7.98365 32.18795 8.48365 29.34895 5.14465 29.34895"></polygon>
                                                <polygon id="Stroke-33" stroke="#1C1F34" stroke-width="2" stroke-linecap="round" stroke-linejoin="round" points="28.50035 32.18795 30.83935 32.18795 31.33935 29.34895 28.00035 29.34895"></polygon>
                                            </g>
                                            <g id="Group-36" transform="translate(9.000000, 29.000000)">
                                                <polygon id="Fill-17" fill="#E7EBF6" points="0.5 16.11505 24.5 16.11505 24.5 0.11505 0.5 0.11505"></polygon>
                                                <path d="M23.8749646,6.61505 L1.12503541,6.61505 C0.779736129,6.61505 0.5,6.27925521 0.5,5.86475851 C0.5,5.45084479 0.779736129,5.11505 1.12503541,5.11505 L23.8749646,5.11505 C24.2202639,5.11505 24.5,5.45084479 24.5,5.86475851 C24.5,6.27925521 24.2202639,6.61505 23.8749646,6.61505" id="Fill-18" fill="#3A427C" opacity="0.2"></path>
                                                <polygon id="Stroke-19" stroke="#1C1F34" stroke-width="2" stroke-linecap="round" stroke-linejoin="round" points="1.25 16.86505 23.75 16.86505 23.75 4.86505 1.25 4.86505"></polygon>
                                                <polygon id="Stroke-20" stroke="#1C1F34" stroke-width="2" stroke-linecap="round" stroke-linejoin="round" points="0.25 4.86505 25.25 4.86505 25.25 0.86505 0.25 0.86505"></polygon>
                                            </g>
                                        </g>
                                    </g>
                                </g>
                            </g>
                        </g>
                    </g>
                </g>
            </g>
        </g>
    </g>
</svg>