<svg width="58px" height="47px" viewBox="0 0 58 47" version="1.1" xmlns="http://www.w3.org/2000/svg" xmlns:xlink="http://www.w3.org/1999/xlink">
    <g id="Page-1" stroke="none" stroke-width="1" fill="none" fill-rule="evenodd">
        <g id="estimate---1" transform="translate(-772.000000, -314.000000)">
            <g id="top">
                <g id="Group" transform="translate(724.000000, 275.000000)">
                    <g id="Group-18">
                        <g id="Group-5">
                            <g id="Group-37" transform="translate(29.000000, 38.000000)">
                                <g id="store-purchase-icon" transform="translate(20.000000, 0.000000)">
                                    <path d="M35.1945,10.814 C33.67,10.814 32.434,9.578 32.434,8.0535 C32.434,6.529 33.67,5.2935 35.1945,5.2935 C36.719,5.2935 37.955,6.529 37.955,8.0535 C37.955,9.578 36.719,10.814 35.1945,10.814 M43.4915034,15.571983 L41.1225028,6.23298509 C40.1640026,3.22848577 37.1225018,1.40398618 34.021001,1.97298605 L24.6659986,4.27898553 C22.8944981,4.60398546 21.3484977,5.67498521 20.4224975,7.21948486 L5.80599369,31.5859794 C5.12549352,32.7204791 5.49349361,34.1914788 6.6274939,34.8719786 L24.9924986,45.8884761 C26.1269989,46.568976 27.5979993,46.2009761 28.2784995,45.0664763 L42.8950033,20.6999818 C43.8215035,19.1559822 44.0390036,17.2874826 43.4915034,15.571983" id="Fill-1" fill="#677BC5" transform="translate(24.626200, 24.049725) rotate(5.000000) translate(-24.626200, -24.049725) "></path>
                                    <path d="M35.1945,5.2934 C36.719,5.2934 37.955,6.5294 37.955,8.0539 C37.955,9.5784 36.719,10.8139 35.1945,10.8139 C33.67,10.8139 32.434,9.5784 32.434,8.0539 C32.434,6.5294 33.67,5.2934 35.1945,5.2934 L35.1945,5.2934 Z M37.9404869,28.959893 L42.234486,21.8018898 C42.238486,21.6058897 42.241986,21.4103896 42.230486,21.2138895 L42.196486,11.228385 C42.196486,11.213385 42.195486,11.198885 42.194986,11.183885 C41.962986,7.55138331 39.0494866,4.63738198 35.4169874,4.40588188 C35.4019874,4.40488188 35.3869874,4.40438188 35.3719874,4.40438188 L25.3869895,4.37088186 C24.9494896,4.34438185 24.5149897,4.36638186 24.0859897,4.41788189 C22.5604901,4.85088208 21.2459903,5.84688253 20.4224905,7.21938315 L5.80599353,31.5858942 C5.12549367,32.7203947 5.4934936,34.1913954 6.62749336,34.8718957 L22.5044901,44.3959 L37.9404869,28.959893 Z" id="Fill-3" fill="#3A427C" opacity="0.2" transform="translate(23.851350, 24.377750) rotate(5.000000) translate(-23.851350, -24.377750) "></path>
                                    <path d="M35.1945,10.814 C33.67,10.814 32.434,9.578 32.434,8.0535 C32.434,6.529 33.67,5.2935 35.1945,5.2935 C36.719,5.2935 37.955,6.529 37.955,8.0535 C37.955,9.578 36.719,10.814 35.1945,10.814 Z M43.4915034,15.571983 L41.1225028,6.23298509 C40.1640026,3.22848577 37.1225018,1.40398618 34.021001,1.97298605 L24.6659986,4.27898553 C22.8944981,4.60398546 21.3484977,5.67498521 20.4224975,7.21948486 L5.80599369,31.5859794 C5.12549352,32.7204791 5.49349361,34.1914788 6.6274939,34.8719786 L24.9924986,45.8884761 C26.1269989,46.568976 27.5979993,46.2009761 28.2784995,45.0664763 L42.8950033,20.6999818 C43.8215035,19.1559822 44.0390036,17.2874826 43.4915034,15.571983 Z" id="Stroke-5" stroke="#1C1F34" stroke-width="2" stroke-linecap="round" stroke-linejoin="round" transform="translate(24.626200, 24.049725) rotate(5.000000) translate(-24.626200, -24.049725) "></path>
                                    <path d="M38.64635,11.00555 C39.72435,9.92755 39.72435,8.18005 38.64635,7.10205 C37.56835,6.02405 35.82085,6.02405 34.74285,7.10205 C33.66485,8.18005 33.66485,9.92755 34.74285,11.00555 C35.82085,12.08355 37.56835,12.08355 38.64635,11.00555 Z" id="Stroke-7" fill="#FFFFFF"></path>
                                    <path d="M38.64635,11.00555 C39.72435,9.92755 39.72435,8.18005 38.64635,7.10205 C37.56835,6.02405 35.82085,6.02405 34.74285,7.10205 C33.66485,8.18005 33.66485,9.92755 34.74285,11.00555 C35.82085,12.08355 37.56835,12.08355 38.64635,11.00555 Z" id="Stroke-9" stroke="#1C1F34" stroke-linecap="round" stroke-linejoin="round"></path>
                                    <path d="M38.64645,11.0055 C37.56845,12.0835 35.82095,12.0835 34.74295,11.0055 C33.66495,9.9275 33.66495,8.18 34.74295,7.102 C35.82095,6.024 37.56845,6.024 38.64645,7.102 C39.72445,8.18 39.72445,9.9275 38.64645,11.0055 M42.9849428,18.8854901 L42.9514428,8.87849583 C42.7429427,5.60999769 40.1384416,3.00499918 36.8699403,2.7964993 L26.8629361,2.76299931 C24.9964353,2.64399938 23.1684346,3.33399899 21.845934,4.65649824 L0.978425304,25.5239864 C0.00692489867,26.4954858 0.00692489867,28.0704849 0.978425304,29.0419844 L16.7064319,44.7694754 C17.6779323,45.7409749 19.2529329,45.7409749 20.2244333,44.7694754 L41.091942,23.9019873 C42.4144426,22.579488 43.1039429,20.7519891 42.9849428,18.8854901" id="Fill-11" fill="#FFFFFF"></path>
                                    <path d="M38.64645,11.0055 C37.56845,12.0835 35.82095,12.0835 34.74295,11.0055 C33.66495,9.9275 33.66495,8.18 34.74295,7.102 C35.82095,6.024 37.56845,6.024 38.64645,7.102 C39.72445,8.18 39.72445,9.9275 38.64645,11.0055 Z M42.9849428,18.8854901 L42.9514428,8.87849583 C42.7429427,5.60999769 40.1384416,3.00499918 36.8699403,2.7964993 L26.8629361,2.76299931 C24.9964353,2.64399938 23.1684346,3.33399899 21.845934,4.65649824 L0.978425304,25.5239864 C0.00692489867,26.4954858 0.00692489867,28.0704849 0.978425304,29.0419844 L16.7064319,44.7694754 C17.6779323,45.7409749 19.2529329,45.7409749 20.2244333,44.7694754 L41.091942,23.9019873 C42.4144426,22.579488 43.1039429,20.7519891 42.9849428,18.8854901 Z" id="Stroke-13" stroke="#1C1F34" stroke-width="2" stroke-linecap="round" stroke-linejoin="round"></path>
                                    <path d="M25.29035,6.29335 L39.45485,20.45785" id="Stroke-15" stroke="#1C1F34" stroke-linecap="round" stroke-linejoin="round"></path>
                                    <path d="M20.5511,38.01515 L18.9616,36.42565 C16.6151,38.20815 14.1346,37.68815 12.7386,36.55965 L14.1346,34.27265 C15.1596,35.11865 16.6446,35.35665 18.0111,33.98965 C18.9766,33.02465 19.0806,32.00015 18.4266,31.34615 C17.9226,30.84165 17.1646,30.82665 16.2591,31.40615 L14.5956,32.47565 C12.6346,33.72265 10.6296,33.70815 9.2041,32.28215 C7.6296,30.70815 7.6896,28.33215 9.0261,26.49015 L7.4366,24.90065 L8.9516,23.38615 L10.5856,25.02015 C12.6051,23.62365 14.5361,24.06915 15.7386,24.85615 L14.4321,27.20265 C13.8226,26.77215 12.5751,26.29665 11.3571,27.51465 C10.4066,28.46465 10.4366,29.53465 11.0456,30.14365 C11.5061,30.60415 12.2191,30.66365 13.0656,30.11365 L14.7291,29.07415 C17.0161,27.61865 18.9771,27.88615 20.3131,29.22265 C21.6801,30.58915 21.9621,32.83215 20.4621,34.89665 L22.0661,36.50065 L20.5511,38.01515 Z" id="Fill-17" fill="#677BC5"></path>
                                    <path d="M21.69415,26.61215 L31.24815,17.05815" id="Stroke-19" stroke="#1C1F34" stroke-linecap="round" stroke-linejoin="round"></path>
                                    <path d="M26.81025,31.7283 L36.36425,22.1743" id="Stroke-21" stroke="#1C1F34" stroke-linecap="round" stroke-linejoin="round"></path>
                                    <path d="M24.2522,29.17025 L33.8062,19.61625" id="Stroke-23" stroke="#1C1F34" stroke-linecap="round" stroke-linejoin="round"></path>
                                    <path d="M19.13605,24.0541 L28.69005,14.5001" id="Stroke-25" stroke="#1C1F34" stroke-linecap="round" stroke-linejoin="round"></path>
                                    <path d="M16.578,21.496 L26.132,11.942" id="Stroke-27" stroke="#1C1F34" stroke-linecap="round" stroke-linejoin="round"></path>
                                    <path d="M14.01995,18.93795 L23.57395,9.38395" id="Stroke-29" stroke="#1C1F34" stroke-linecap="round" stroke-linejoin="round"></path>
                                    <path d="M36.9031,8.42793134 C36.9031,8.42793134 38.0730994,3.41592886 44.6125959,2.96392864 C51.9280921,2.45792839 54.9165905,7.99843113 55.4695902,13.3754338 C56.9170894,27.4474408 45.2880956,30.059942 48.1425941,41.0534475 C48.1425941,41.0534475 49.4485934,45.6079497 53.4760913,46.14095" id="Stroke-31" stroke="#1C1F34" stroke-width="2" stroke-linecap="round" stroke-linejoin="round"></path>
                                </g>
                            </g>
                        </g>
                    </g>
                </g>
            </g>
        </g>
    </g>
</svg>
