<svg width="50px" height="44px" viewBox="0 0 50 44" version="1.1" xmlns="http://www.w3.org/2000/svg" xmlns:xlink="http://www.w3.org/1999/xlink">
    <g id="Page-1" stroke="none" stroke-width="1" fill="none" fill-rule="evenodd">
        <g id="estimate---1" transform="translate(-1094.000000, -498.000000)">
            <g id="top" transform="translate(0.000000, 1.000000)">
                <g id="Group" transform="translate(724.000000, 274.000000)">
                    <g id="Group-18">
                        <g id="Group-11" transform="translate(318.000000, 180.000000)">
                            <g id="Group-46" transform="translate(29.000000, 44.000000)">
                                <g id="dump" transform="translate(24.000000, 0.000000)">
                                    <polygon id="Fill-1" fill="#E7EBF6" points="2.5 41 28.5 41 28.5 15 2.5 15"></polygon>
                                    <path d="M28.6279466,21.5 L2.87205342,21.5 C2.39042753,21.5 2,21.0522894 2,20.5 C2,19.9477106 2.39042753,19.5 2.87205342,19.5 L28.6279466,19.5 C29.1095725,19.5 29.5,19.9477106 29.5,20.5 C29.5,21.0522894 29.1095725,21.5 28.6279466,21.5 Z" id="Fill-2" fill="#3A427C" opacity="0.2"></path>
                                    <polygon id="Stroke-4" stroke="#1C1F34" stroke-width="2" stroke-linecap="round" stroke-linejoin="round" points="2.75 41.25 28.75 41.25 28.75 19.75 2.75 19.75"></polygon>
                                    <path d="M2.81425,19.434 L28.93775,19.434 L2.81425,19.434 Z" id="Fill-7" fill="#8EAFFF"></path>
                                    <path d="M2.81425,19.434 L28.93775,19.434 L2.81425,19.434 Z" id="Fill-8" fill="#8EAFFF"></path>
                                    <g id="Group-34">
                                        <polygon id="Stroke-10" stroke="#1C1F34" stroke-width="2" stroke-linecap="round" stroke-linejoin="round" points="1.75 19.86505 29.25 19.86505 29.25 15.86505 1.75 15.86505"></polygon>
                                        <path d="M18.6506248,25.5985025 C18.6506248,25.5985025 22.8346244,20.8355032 23.8596243,16.3405039 C24.8846242,11.8455046 23.4256243,11.1695047 20.9776246,10.7085048 C18.5291248,10.2480049 17.043125,9.92700492 17.4946249,8.34050516 C17.9461249,6.75400541 20.9776246,5.29150564 20.9776246,5.29150564 C20.9776246,5.29150564 19.2431247,3.51100592 21.8621245,2.10250614 C24.4806242,0.693506356 26.1276241,0.188006434 28.3386239,0.117506445 C30.5501237,0.0465064563 31.0321236,1.52750623 29.6486237,2.88800601 C28.2651239,4.2480058 26.711624,8.97850507 30.6491236,11.5885047 C34.5861233,14.1985043 42.0591226,17.3725038 44.1836223,20.8085032 C46.3081221,24.2445027 47.397122,25.6945025 47.487122,31.6660015 C47.576622,37.6375006 46.2496221,41.5025 39.6896228,41.5025 L28.3386239,41.5025 C28.3386239,41.5025 20.7191246,41.1020001 20.7191246,34.763001" id="Fill-12" fill="#677BC5"></path>
                                        <path d="M20.9773274,37.2613354 C20.9773274,37.2613354 22.3683286,41.3989851 29.2968345,41.3989851 L40.7953443,41.3989851 C40.7953443,41.3989851 47.50285,41.5023351 47.50285,33.9103356 C47.50285,26.3183362 47.2818498,21.2323366 37.9943419,16.1468369 C28.707334,11.0608373 28.707334,10.3238374 28.707334,6.78583764 C28.707334,3.24783791 30.5498356,1.77383802 30.5498356,1.77383802 C30.5498356,1.77383802 29.5918348,0.0623381813 25.9803317,0.799338126 C22.3683286,1.53633807 19.4938262,3.61633788 20.6733272,5.01683777 C21.8523282,6.41733767 27.4543329,8.92483748 27.0118326,15.410337" id="Stroke-13" stroke="#1C1F34" stroke-width="2" stroke-linecap="round" stroke-linejoin="round"></path>
                                        <path d="M20.4045869,5.46985 C20.4045869,5.46985 17.1350875,7.38635 17.2090875,9.08135 C17.2825875,10.77685 23.4000864,9.52385 24.1375863,12.76685 C24.8745862,16.00985 19.4485871,25.34635 19.4485871,25.34635" id="Stroke-14" stroke="#1C1F34" stroke-width="2" stroke-linecap="round" stroke-linejoin="round"></path>
                                        <path d="M24.1374,12.76695 C24.1374,12.76695 24.6929,10.21295 29.6484,9.90495" id="Stroke-15" stroke="#1C1F34" stroke-width="2" stroke-linecap="round" stroke-linejoin="round"></path>
                                        <path d="M0,41.36505 L48,41.36505" id="Stroke-16" stroke="#1C1F34" stroke-width="2" stroke-linecap="round" stroke-linejoin="round"></path>
                                        <polygon id="Fill-17" fill="#FFFFFF" points="11 40.61505 35 40.61505 35 24.61505 11 24.61505"></polygon>
                                        <path d="M34.3749646,31.11505 L11.6250354,31.11505 C11.2797361,31.11505 11,30.7792552 11,30.3647585 C11,29.9508448 11.2797361,29.61505 11.6250354,29.61505 L34.3749646,29.61505 C34.7202639,29.61505 35,29.9508448 35,30.3647585 C35,30.7792552 34.7202639,31.11505 34.3749646,31.11505" id="Fill-18" fill="#3A427C" opacity="0.2"></path>
                                        <polygon id="Stroke-19" stroke="#1C1F34" stroke-width="2" stroke-linecap="round" stroke-linejoin="round" points="11.75 41.36505 34.25 41.36505 34.25 29.36505 11.75 29.36505"></polygon>
                                        <polygon id="Stroke-20" stroke="#1C1F34" stroke-width="2" stroke-linecap="round" stroke-linejoin="round" points="10.75 29.36505 35.75 29.36505 35.75 25.36505 10.75 25.36505"></polygon>
                                        <path d="M26.1488,32.9546024 C25.4038,32.2095992 24.1963,32.2095992 23.4518,32.9546024 L23.2173,33.1891034 L22.9828,32.9546024 C22.2378,32.2095992 21.0303,32.2095992 20.2858,32.9546024 C19.5408,33.6996055 19.5408,34.9071107 20.2858,35.6516138 L20.5203,35.8861148 L22.6878,38.0536241 C22.9803,38.3461253 23.4543,38.3461253 23.7468,38.0536241 L25.9143,35.8861148 L26.1488,35.6516138 C26.8938,34.9071107 26.8938,33.6996055 26.1488,32.9546024" id="Fill-21" fill="#677BC5"></path>
                                    </g>
                                </g>
                            </g>
                        </g>
                    </g>
                </g>
            </g>
        </g>
    </g>
</svg>
