<svg width="57px" height="47px" viewBox="0 0 57 47" version="1.1" xmlns="http://www.w3.org/2000/svg" xmlns:xlink="http://www.w3.org/1999/xlink">
    <g id="Page-1" stroke="none" stroke-width="1" fill="none" fill-rule="evenodd">
        <g id="estimate---1" transform="translate(-932.000000, -654.000000)">
            <g id="top">
                <g id="Group" transform="translate(724.000000, 275.000000)">
                    <g id="Group-18">
                        <g id="Group-12-Copy" transform="translate(0.000000, 360.000000)">
                            <g id="Group-48" transform="translate(188.000000, 20.000000)">
                                <g id="Page-1" transform="translate(21.000000, 0.000000)">
                                    <polygon id="Fill-1" fill="#DEDEDE" points="20.8725 43.1423 23.341 43.1423 23.341 40.6738 20.8725 40.6738"></polygon>
                                    <polygon id="Fill-3" fill="#DEDEDE" points="4.6405 43.1423 7.109 43.1423 7.109 40.6738 4.6405 40.6738"></polygon>
                                    <path d="M40.2778,16.2436 C40.2778,16.2436 35.2008,16.4066 35.9983,25.3121 L35.0668,24.9466 C35.0668,24.9466 30.6288,26.7931 33.4773,34.4106 C33.4773,34.4106 32.4688,34.2286 30.1503,35.0536 C27.8318,35.8786 26.2148,36.5091 24.4273,35.0536 C22.6398,33.5986 22.1748,31.0166 22.0498,28.9126 C21.9248,26.8086 21.5393,24.9751 19.3273,20.4846 C17.1158,15.9936 17.2978,12.7696 19.9688,12.7696 C22.6398,12.7696 22.8688,15.3191 22.8688,15.3191 C22.8688,15.3191 25.4243,18.9531 25.9013,19.5741 C26.3783,20.1951 26.9088,19.9686 27.2413,18.4056 C27.5738,16.8431 28.3638,14.1321 28.1403,12.0546 C27.9173,9.9766 26.9068,4.7516 27.6568,2.9061 C28.4068,1.0601 29.8603,0.2201 31.2888,1.0046 C32.7168,1.7886 32.5098,4.4086 32.5098,4.4086 L34.4153,9.7981 C34.4153,9.7981 38.5328,14.6821 40.2778,16.2436" id="Fill-5" fill="#677BC5"></path>
                                    <path d="M53.16015,37.67205 C52.22515,37.17655 51.27565,36.58905 50.33715,35.92555 C47.71165,34.06755 46.89365,32.77705 44.88715,30.78155 C42.62665,28.53355 40.67415,26.59205 38.61115,25.49805 C38.13865,25.24755 37.65215,25.04905 37.16465,24.90805 C36.78065,24.79705 36.37465,25.02355 36.26415,25.41655 C36.15365,25.80905 36.37815,26.21855 36.76515,26.33055 C37.15715,26.44405 37.55165,26.60555 37.93665,26.80955 C39.80865,27.80205 41.68965,29.67255 43.86765,31.83805 C45.91565,33.87455 46.77915,35.21105 49.50465,37.13905 C50.49315,37.83805 51.49615,38.45905 52.48565,38.98355 C52.59365,39.04055 52.70865,39.06755 52.82265,39.06755 C53.08515,39.06755 53.33915,38.92305 53.46865,38.67055 C53.65465,38.30805 53.51665,37.86155 53.16015,37.67205" id="Fill-7" fill="#DEDEDE"></path>
                                    <path d="M27.73175,36.2834 L27.73175,36.2834 L0.25025,36.2834 L0.25025,36.2834 C0.25025,38.7084 2.21575,40.6739 4.64075,40.6739 L23.34125,40.6739 C25.76575,40.6739 27.73175,38.7084 27.73175,36.2834 Z" id="Stroke-9" stroke="#1C1F34" stroke-width="2" stroke-linecap="round" stroke-linejoin="round"></path>
                                    <path d="M36.9852,25.58325 C29.6927,23.30975 26.3782,20.19525 26.3782,20.19525 L22.8967,15.66125 C22.8967,15.66125 22.8977,13.17475 20.6812,12.80275 C18.4652,12.43075 17.2577,15.26925 18.0352,17.60975 C18.8127,19.94975 22.0562,25.02875 22.0292,27.80375 C22.0027,30.57875 22.5202,34.46875 25.5307,35.70575 C28.5412,36.94225 30.1437,33.70025 35.1067,34.53325 C40.0697,35.36625 42.8842,38.36575 50.8517,39.70275" id="Stroke-11" stroke="#1C1F34" stroke-width="2" stroke-linecap="round" stroke-linejoin="round"></path>
                                    <path d="M36.9844,25.57095 C37.3959,25.71545 37.8249,25.89995 38.2739,26.13445 C42.0989,28.13145 44.8279,31.70095 50.4579,35.31245 C51.3944,35.91295 52.3704,36.48745 53.3914,37.02095" id="Stroke-13" stroke="#1C1F34" stroke-width="2" stroke-linecap="round" stroke-linejoin="round"></path>
                                    <path d="M54.55535,23.99385 C51.30335,22.64335 47.96785,21.61285 44.18885,19.13235 C36.91635,14.35885 34.41535,9.79785 34.41535,9.79785 L32.50985,4.40885 C32.50985,4.40885 33.28035,1.54435 31.28835,0.50435 C29.29685,-0.53565 27.26885,2.28935 27.28335,4.75535 C27.29785,7.22135 28.80885,13.05535 27.92385,15.68535 C27.42585,17.16485 26.98285,19.03335 27.13135,20.75985" id="Stroke-15" stroke="#1C1F34" stroke-width="2" stroke-linecap="round" stroke-linejoin="round"></path>
                                    <polygon id="Fill-17" fill="#677BC5" points="3.732 36.2833 13.937 36.2833 13.937 23.9698 3.732 23.9698"></polygon>
                                    <path d="M7.5,25 L7.5,28" id="Stroke-20" stroke="#FFFFFF"></path>
                                    <polygon id="Stroke-21" stroke="#1C1F34" stroke-width="2" stroke-linecap="round" stroke-linejoin="round" points="3.732 36.2833 13.937 36.2833 13.937 23.9698 3.732 23.9698"></polygon>
                                    <path d="M13.93705,32.77085 C16.51755,32.77085 17.38855,30.52185 17.38855,27.94135 C17.38855,25.36035 16.51755,25.05385 13.93705,25.05385" id="Stroke-22" stroke="#1C1F34" stroke-width="2" stroke-linecap="round" stroke-linejoin="round"></path>
                                    <path d="M8.40201806,30.515375 L6.59798194,30.515375 C6.26765799,30.515375 6,30.263375 6,29.952375 L6,28.344875 C6,28.187375 6.06956984,28.036875 6.19277748,27.930375 L7.09506107,27.148875 C7.32395114,26.950375 7.67604886,26.950375 7.90493893,27.148875 L8.80669145,27.930375 C8.9298991,28.036875 9,28.187375 9,28.344875 L9,29.952375 C9,30.263375 8.73234201,30.515375 8.40201806,30.515375" id="Fill-23" fill="#FFFFFF"></path>
                                    <path d="M6.95765,20.48435 C6.95765,19.32835 7.95765,19.32835 7.95765,18.17185 C7.95765,17.01485 6.95765,17.01485 6.95765,15.85835 C6.95765,14.70135 7.95765,14.70135 7.95765,13.54435" id="Stroke-24" stroke="#1C1F34" stroke-linecap="round" stroke-linejoin="round"></path>
                                    <path d="M10.43395,20.48435 C10.43395,19.32835 11.24795,19.32835 11.24795,18.17185 C11.24795,17.01485 10.43395,17.01485 10.43395,15.85835" id="Stroke-25" stroke="#1C1F34" stroke-linecap="round" stroke-linejoin="round"></path>
                                    <path d="M31.29165,17.6549 C31.29165,17.6549 30.60965,18.6139 30.96265,19.7769 C31.24915,20.7209 32.19665,20.9119 32.19665,20.9119" id="Stroke-26" stroke="#1C1F34" stroke-linecap="round" stroke-linejoin="round"></path>
                                    <path d="M4.64065,40.67405 L4.15515,45.61105" id="Stroke-27" stroke="#1C1F34" stroke-linecap="round" stroke-linejoin="round"></path>
                                    <path d="M7.5545,40.67405 L7.069,45.61105" id="Stroke-28" stroke="#1C1F34" stroke-linecap="round" stroke-linejoin="round"></path>
                                    <path d="M23.34105,40.67405 L23.82655,45.61105" id="Stroke-29" stroke="#1C1F34" stroke-linecap="round" stroke-linejoin="round"></path>
                                    <path d="M20.42725,40.67405 L20.91275,45.61105" id="Stroke-30" stroke="#1C1F34" stroke-linecap="round" stroke-linejoin="round"></path>
                                </g>
                            </g>
                        </g>
                    </g>
                </g>
            </g>
        </g>
    </g>
</svg>
