<svg width="112px" height="39px" viewBox="0 0 112 37" version="1.1" xmlns="http://www.w3.org/2000/svg" xmlns:xlink="http://www.w3.org/1999/xlink">
    <defs>
        <linearGradient x1="50%" y1="95.0426188%" x2="50%" y2="-1.11022302e-14%" id="linearGradient-1">
            <stop stop-color="#A4ACBC" offset="0%"></stop>
            <stop stop-color="#B5BBCA" offset="98.59%"></stop>
        </linearGradient>
        <linearGradient x1="50%" y1="0%" x2="50%" y2="97.4669165%" id="linearGradient-2">
            <stop stop-color="#FFFFFF" offset="0%"></stop>
            <stop stop-color="#F9F9FC" offset="97.9591837%"></stop>
        </linearGradient>
        <linearGradient x1="50%" y1="-1.11022302e-14%" x2="50%" y2="100%" id="linearGradient-3">
            <stop stop-color="#1C1F34" stop-opacity="0.2" offset="1.18582589%"></stop>
            <stop stop-color="#1C1F34" offset="100%"></stop>
        </linearGradient>
        <path d="M29.7783461,21.7108889 L29.761489,21.3848941 C29.7234885,20.6500126 29.9826741,20.354745 30.9706353,19.0883317 C31.9585965,17.8219184 32.3936414,15.0555567 32.3936414,15.0555567 C32.8033603,14.6290165 35.7179436,14.2832373 36.3189919,14.2832373 L40.4943335,14.2832373 C41.0923826,14.2832373 41.5729572,14.7594392 41.567707,15.3490912 L41.5154983,21.5080058 C41.5102571,22.0966606 41.0224215,22.5833246 40.4275197,22.5949683 L30.6320216,22.4914218 C30.1832946,22.5002045 29.801085,22.1506296 29.7783461,21.7108889 Z" id="path-4"></path>
        <linearGradient x1="50%" y1="-1.11022302e-14%" x2="50%" y2="85.3066715%" id="linearGradient-5">
            <stop stop-color="#8388A4" offset="0%"></stop>
            <stop stop-color="#A5A9C1" offset="98.6706792%"></stop>
        </linearGradient>
        <path d="M0.413558074,3.94784577 C0.413558074,2.86862778 0.203045875,0.277212159 0.203045875,0.277212159 C0.190972313,0.124112111 0.337879254,2.49e-14 0.529783042,2.49e-14 L0.994453053,2.49e-14 C1.18697857,2.49e-14 1.35303613,0.12444679 1.36533227,0.280537835 C1.36533227,0.280537835 1.57542465,2.84763789 1.57542465,3.91636094 C1.57542465,5.37182483 1.25192763,8.65255571 1.25192763,8.65255571 C1.23723594,8.80574574 1.06863148,8.92993079 0.876727688,8.92993079 L0.412057678,8.92993079 C0.219532162,8.92993079 0.0755105826,8.80618149 0.090349728,8.65116309 C0.090349728,8.65116309 0.413558074,5.39281472 0.413558074,3.94784577 L0.413558074,3.94784577 Z" id="path-6"></path>
        <path d="M0,0.172081286 C0,0.077043416 0.0755351606,0 0.173436085,0 L0.876866346,0 C0.97265245,0 1.05030243,0.0798228622 1.05030243,0.172081286 C1.05030243,0.267119156 0.97476727,0.344162572 0.876866346,0.344162572 L0.173436085,0.344162572 C0.0776499801,0.344162572 0,0.26433971 0,0.172081286 L0,0.172081286 Z" id="path-8"></path>
        <path d="M0.875284066,0 L5.42655768,0 C5.81329206,0 6.06110057,0.301415575 5.98076097,0.66998471 L5.22253241,4.14846445 C5.14187606,4.51848679 4.76365858,4.81844916 4.37531745,4.81844916 L0.876213223,4.81844916 C0.488965676,4.81844916 0.152606367,4.50970354 0.12525,4.13320005 L0.224829027,0.685249108 C0.197331038,0.306796476 0.486652248,0 0.875284066,0 Z" id="path-10"></path>
        <linearGradient x1="50%" y1="0%" x2="50%" y2="100%" id="linearGradient-12">
            <stop stop-color="#FFC900" offset="0%"></stop>
            <stop stop-color="#FFF15E" offset="100%"></stop>
        </linearGradient>
        <polygon id="path-13" points="0.886878672 0.688325144 5.39485382 0.688325144 4.59932879 4.1300663 0.801947917 4.1300663"></polygon>
    </defs>
    <g id="Page-1" stroke="none" stroke-width="1" fill="none" fill-rule="evenodd">
        <g id="estimate---3" transform="translate(-958.000000, -485.000000)">
            <g id="top" transform="translate(0.000000, 1.000000)">
                <g id="Group" transform="translate(724.000000, 273.000000)">
                    <g id="form" transform="translate(0.000000, 56.000000)">
                        <g id="Group-6" transform="translate(8.000000, 130.000000)">
                            <g id="trucks" transform="translate(282.500000, 44.000000) scale(-1, 1) translate(-282.500000, -44.000000) translate(226.000000, 25.000000)">
                                <g id="Group-2">
                                    <g id="shadow" transform="translate(12.750000, 35.430769)" fill="#1F2857">
                                        <path d="M6.56538462,0.376923077 L93.1846154,0.376923077 C93.4968687,0.376923077 93.75,0.630054391 93.75,0.942307692 L93.75,0.942307692 C93.75,1.25456099 93.4968687,1.50769231 93.1846154,1.50769231 L6.56538462,1.50769231 C6.25313131,1.50769231 6,1.25456099 6,0.942307692 L6,0.942307692 C6,0.630054391 6.25313131,0.376923077 6.56538462,0.376923077 Z" id="Shadow" transform="translate(49.875000, 0.942308) scale(-1, 1) translate(-49.875000, -0.942308) "></path>
                                        <rect id="Shadow-Copy-3" transform="translate(97.875000, 0.942308) scale(-1, 1) translate(-97.875000, -0.942308) " x="96" y="0.376923077" width="3.75" height="1.13076923" rx="0.565384615"></rect>
                                        <rect id="Shadow-Copy-4" transform="translate(1.875000, 0.942308) scale(-1, 1) translate(-1.875000, -0.942308) " x="0" y="0.376923077" width="3.75" height="1.13076923" rx="0.565384615"></rect>
                                    </g>
                                    <g id="Pickup-Truck---White-(large)" transform="translate(56.500000, 19.000000) scale(-1, 1) translate(-56.500000, -19.000000) translate(0.500000, 0.000000)">
                                        <g id="Group" transform="translate(104.649648, 24.887165) rotate(-355.000000) translate(-104.649648, -24.887165) translate(98.149648, 22.887165)">
                                            <path d="M0.619349653,0.743495656 C0.619349653,0.363825801 0.934565326,0.0560425721 1.32217233,0.0560425721 L12.17021,0.0560425721 C12.5583682,0.0560425721 12.8730326,0.364374791 12.8730326,0.743495656 L12.8730326,2.46616807 C12.8730326,2.84583792 12.557817,3.15362115 12.17021,3.15362115 L1.32217233,3.15362115 C0.934014082,3.15362115 0.619349653,2.84528894 0.619349653,2.46616807 L0.619349653,0.743495656 L0.619349653,0.743495656 Z" id="Combined-Shape" fill="#1C1F34"></path>
                                            <path d="M0.36685068,1.14467313 L12.2622789,1.11467579 L12.2670198,2.17399091 C12.2670198,2.36585761 12.112088,2.5213963 11.9135059,2.5213963 L0.36685068,2.5213963 C0.171610358,2.5213963 0.0133368056,2.36880265 0.0133368056,2.17399091 L0.0133368056,1.49207851 C0.0133368056,1.30021182 0.168268634,1.14467313 0.36685068,1.14467313 Z" id="Combined-Shape" fill="url(#linearGradient-1)"></path>
                                        </g>
                                        <path d="M100.866394,25.9950819 C100.866394,25.9950819 101.449688,20.9816446 101.37748,18.4807743 C101.323831,16.6226812 100.5439,13.8832171 100.5439,13.8832171 C100.30787,12.9636185 98.6359542,12.2181367 97.6639086,12.2181367 L54.2662453,12.2181367 C54.2662453,12.2181367 54.2662469,10.4194596 54.2662453,10.0752859 C54.2662469,3.99090728 53.5324844,1.85752605 53.5324844,1.85752605 C53.3576566,1.11674997 52.5892509,0.475153167 51.8212184,0.428431616 C51.8212184,0.428431616 39.8863005,-0.41663288 35.0952653,0.516232301 C30.3042301,1.44909748 21.323255,10.1344139 21.323255,10.1344139 C21.1844073,10.266735 20.91471,10.3908778 20.7209401,10.4121085 C20.7209401,10.4121085 3.53515754,12.2181367 2.51068279,14.3601471 C1.48620804,16.5021576 1.18133311,26.7389712 3.53515761,28.3942986 C5.88898212,30.049626 98.1653041,28.4371341 98.1653041,28.4371341 C99.5173502,28.4134767 100.729622,27.3231938 100.866394,25.9950819 Z" id="Combined-Shape" fill="#1C1F34"></path>
                                        <path d="M100.271259,26.0117455 C100.271259,26.0117455 101.099616,20.9816758 101.027408,18.4808026 C100.973759,16.6227072 100.033873,14.5163193 100.033873,14.5163193 C99.6928267,13.6272437 98.6359873,12.9065055 97.6639417,12.9065055 L53.5660674,12.9065055 C53.5660674,12.9065055 53.566069,10.4194782 53.5660674,10.0753041 C53.566069,3.99091816 53.1097745,2.55723135 53.1097745,2.55723135 C52.9750629,1.81018659 52.2375818,1.16235823 51.4687356,1.11449581 C51.4687356,1.11449581 39.8863321,0.271720867 35.0952967,1.20458717 C30.3042613,2.13745346 21.6687682,10.8181253 21.6687682,10.8181253 C21.5324736,10.9530174 21.2626329,11.0766495 21.0702601,11.0943247 C21.0702601,11.0943247 4.23539787,12.5623315 3.21092309,14.7043445 C2.18644831,16.8463575 1.88157337,26.7390093 4.23539794,28.3943387 C6.58922251,30.0496681 97.4618335,28.4378849 97.4618335,28.4378849 C98.8156988,28.413835 100.077875,27.3273405 100.271259,26.0117455 Z" id="Combined-Shape" fill="url(#linearGradient-2)"></path>
                                        <g id="Combined-Shape" transform="translate(35.662850, 18.439103) scale(1, -1) translate(-35.662850, -18.439103) ">
                                            <use fill="#FFFFFF" xlink:href="#path-4"></use>
                                            <use fill-opacity="0.05" fill="url(#linearGradient-3)" xlink:href="#path-4"></use>
                                        </g>
                                        <path d="M2.27206979,14.0961102 C2.27206979,14.0961102 9.70209418,13.1485019 14.1677537,13.0773972 C18.6334132,13.0062925 23.6771788,13.7552863 23.6771788,13.7552863 L23.6771788,14.0994597 C23.6771788,14.0994597 20.3984183,13.3222798 14.1625588,13.4215705 C7.92669921,13.5208613 2.27206979,14.4402835 2.27206979,14.4402835 L2.27206979,14.0961102 Z" id="Curve" fill="#242D5F" opacity="0.1" transform="translate(12.974624, 13.756460) rotate(-8.000000) translate(-12.974624, -13.756460) "></path>
                                        <polygon id="Curve" fill="#242D5F" opacity="0.1" points="35.3063285 16.6924331 66.2241049 16.6924331 73.1719198 17.0365956 28.3585135 17.0365956"></polygon>
                                        <polygon id="Curve" fill="#242D5F" opacity="0.1" points="31.5094208 22.8875902 68.6205319 22.8875902 65.6752057 23.9201356 35.0104691 23.9201356"></polygon>
                                        <g id="Door" transform="translate(25.907731, 1.892981)">
                                            <path d="M1.48185183,10.5890084 C0.320176129,10.6044394 -0.255680083,9.76582879 0.197039803,8.71266517 L0.282680774,8.51343832 C0.659251273,7.63742124 1.51862858,6.38585856 2.21462537,5.71968638 C2.21462537,5.71968638 7.26571624,0.663646218 9.201793,0.3318751 C11.1378698,0.000103982153 16.7288098,0.00752350802 16.7288098,0.00752350802 C17.4988336,0.00342581697 18.1175642,0.617684508 18.1108052,1.37703767 L18.0430223,8.99224973 C18.0362535,9.75270921 17.4048369,10.3774979 16.6288111,10.3878061 L1.48185183,10.5890084 L1.48185183,10.5890084 Z" id="Combined-Shape" fill="#1C1F34"></path>
                                            <path d="M2.17682392,9.89848239 C1.01803512,9.91512446 0.628301992,9.17428905 1.30211411,8.24956681 L0.995707829,8.67007083 C1.55855088,7.89763964 2.57128469,6.72830438 3.26587916,6.06556015 C3.26587916,6.06556015 7.96591271,1.35202064 9.90198878,1.02025006 C11.8380649,0.688479488 16.6367897,0.76709842 16.6367897,0.76709842 C17.019938,0.770980618 17.330541,1.08071732 17.330541,1.46561201 L17.3305405,8.30382434 C17.3305404,9.064335 16.7063445,9.68981515 15.9333593,9.70091646 L2.17682392,9.89848239 L2.17682392,9.89848239 Z" id="Combined-Shape" fill="url(#linearGradient-5)"></path>
                                            <path d="M21.0062806,1.37844134 C21.0062806,0.617149211 21.6341467,0 22.4081932,0 L23.9223119,0 C24.6965669,0 25.398126,0.610062876 25.4875394,1.36528055 C25.4875394,1.36528055 25.9077306,4.73399704 25.9077306,5.68512352 L25.9077306,9.29464884 C25.9077306,10.0538952 25.28198,10.669386 24.5097312,10.669386 L22.4042799,10.669386 C21.6321862,10.669386 21.0062806,10.0496378 21.0062806,9.29094469 L21.0062806,1.37844134 L21.0062806,1.37844134 Z" id="Combined-Shape" fill="#1C1F34"></path>
                                            <g id="Reflection" opacity="0.1" transform="translate(22.056583, 2.409196)" fill="#FFFFFF">
                                                <path d="M0.218933046,2.02121944 C0.156093382,1.9723462 0.147636875,1.88579702 0.201397162,1.8264127 L1.79904063,0.0616348062 C1.85219549,0.00291924916 1.94578953,-0.00540026348 2.0090673,0.0438137081 L2.0090673,0.0438137081 C2.07190696,0.0926869444 2.08036347,0.179236134 2.02660318,0.238620451 L0.428959715,2.00339834 C0.375804852,2.0621139 0.282210816,2.07043341 0.218933046,2.02121944 L0.218933046,2.02121944 L0.218933046,2.02121944 Z" id="Rectangle-1113"></path>
                                                <path d="M1.6415811,1.53465452 C1.61016257,1.51021809 1.60534983,1.46758967 1.63167315,1.4385116 L2.25373641,0.751349017 C2.27968293,0.722687178 2.32710534,0.719976469 2.35760501,0.743698242 L2.35760501,0.743698242 C2.38902354,0.768134674 2.39383628,0.81076309 2.36751296,0.839841167 L1.7454497,1.52700375 C1.71950318,1.55566559 1.67208077,1.5583763 1.6415811,1.53465452 L1.6415811,1.53465452 L1.6415811,1.53465452 Z" id="Rectangle-1113-Copy"></path>
                                            </g>
                                            <g id="Reflection" opacity="0.1" transform="translate(6.301873, 2.065033)" fill="#FFFFFF">
                                                <path d="M0.124229345,3.68037876 L3.36779485,0.117842814 C3.46640993,0.00952998278 3.64158724,-0.00462781582 3.76090955,0.0876474461 C3.87940573,0.179283836 3.89349532,0.343601281 3.79690746,0.449687536 L0.553341952,4.01222348 C0.454726873,4.12053632 0.279549562,4.13469411 0.160227254,4.04241885 C0.0417310795,3.95078246 0.0276414869,3.78646502 0.124229345,3.68037876 Z" id="Rectangle-1113"></path>
                                                <path d="M2.57369424,2.66884363 C2.51444513,2.62302535 2.50796626,2.54024478 2.55651131,2.48692665 L3.81661481,1.10292648 C3.86637405,1.04827478 3.95647555,1.04245387 4.01399187,1.08693217 L4.01399187,1.08693217 C4.07324098,1.13275044 4.07971985,1.21553101 4.0311748,1.26884914 L2.7710713,2.65284931 C2.72131206,2.70750101 2.63121056,2.71332192 2.57369424,2.66884363 L2.57369424,2.66884363 L2.57369424,2.66884363 Z" id="Rectangle-1113-Copy"></path>
                                            </g>
                                            <path d="M16.6277322,12.3902566 C16.9190076,12.3902566 17.155133,12.6194119 17.155133,12.9065293 C17.155133,13.1916589 16.9182985,13.422802 16.6277322,13.422802 L14.5315685,13.422802 C14.2402931,13.422802 14.0041677,13.1936467 14.0041677,12.9065293 C14.0041677,12.6213998 14.2410022,12.3902566 14.5315685,12.3902566 L16.6277322,12.3902566 L16.6277322,12.3902566 Z" id="Combined-Shape" fill="#1F2857"></path>
                                            <path d="M16.6629735,2.38032468 C16.6851431,2.01611823 17.0058574,1.72087058 17.3800533,1.72087058 L17.1784351,1.72087058 C17.5522977,1.72087058 17.8553733,2.01794409 17.8553733,2.38032468 L17.8553733,4.8473202 C17.8553733,5.21152664 17.5553458,5.5067743 17.1802207,5.5067743 L17.1478161,5.5067743 C16.7749396,5.5067743 16.4907466,5.20970079 16.5128051,4.8473202 L16.6629735,2.38032468 L16.6629735,2.38032468 Z" id="Combined-Shape" fill="#1C1F34"></path>
                                            <path d="M15.9035731,7.19884975 C16.0147305,6.83460138 16.4177996,6.53931974 16.8067592,6.53931974 L17.1534455,6.53931974 C17.5411041,6.53931974 17.7932245,6.8447513 17.7186939,7.21109246 L17.1551546,9.98106089 L15.0545281,9.98106089 L15.9035731,7.19884975 L15.9035731,7.19884975 Z" id="Combined-Shape" fill="#1C1F34"></path>
                                            <path d="M0.720709375,9.12700103 C0.720709375,8.83307522 1.36125895,7.93583685 1.36125895,7.93583685 L2.34199899,6.83979103 L6.93850208,10.3252235 L1.36125895,10.3252235 C1.36125895,10.3252235 0.720709375,9.62953742 0.720709375,9.12700103 Z" id="Rectangle-1111" fill="#1C1F34"></path>
                                            <g id="Steering-Wheel" transform="translate(4.026208, 6.367210)" fill="#1C1F34">
                                                <path d="M1.95426886,3.63978071 L2.04944448,3.80857245 C2.19010682,4.05803381 2.50820478,4.14541546 2.76187639,4.00718579 C3.01731656,3.86799241 3.10786433,3.55591933 2.96807066,3.30799853 L1.26776282,0.292542426 C1.12710048,0.0430810622 0.809002521,-0.0443005895 0.555330907,0.0939290793 C0.299890741,0.23312246 0.209342976,0.545195546 0.349136642,0.793116338 L1.27352749,2.43250185 L0.121538889,3.35382128 L0.631553517,4.18824438 L1.95426886,3.63978071 L1.95426886,3.63978071 Z" id="Combined-Shape"></path>
                                            </g>
                                            <g id="Mirror" transform="translate(0.000000, 5.850937)">
                                                <path d="M0.0112676111,4.11051873 C-0.094428048,2.99297147 0.578277254,1.07555359 0.578277254,1.07555359 C0.699262193,0.694465747 1.13141474,0.287234622 1.54313432,0.166090009 L1.99490182,0.0331616711 C2.40679272,-0.0880333532 2.7708979,0.13304819 2.80862051,0.53189898 L3.355155,6.31054807 C3.39266852,6.70718811 3.07332397,7.05703426 2.64515285,7.09168637 L1.86478877,7.15484164 C1.43515189,7.18961237 0.959186005,6.91464516 0.807449572,6.5438938 C0.807449572,6.5438938 0.0852081434,4.8923109 0.0112676111,4.11051873 L0.0112676111,4.11051873 Z" id="Combined-Shape" fill="#242D5F" opacity="0.1"></path>
                                                <path d="M0.0115946796,3.43985824 C-0.073384951,2.48499901 0.336628339,0.940299917 0.336628339,0.940299917 C0.423548401,0.570107027 0.788999159,0.16426431 1.15162362,0.0342771573 L1.13638965,0.0397379565 C1.49957906,-0.0904517069 1.82120928,0.109716042 1.85481233,0.487291074 L2.28183011,5.28540403 C2.3154146,5.66277045 2.03265924,5.99534657 1.64532337,6.02865972 L1.47097192,6.04365497 C1.08585447,6.07677733 0.672183634,5.80864333 0.552157675,5.44895237 C0.552157675,5.44895237 0.0710430918,4.10784026 0.0115946796,3.43985824 L0.0115946796,3.43985824 Z" id="Combined-Shape" fill="#1C1F34"></path>
                                            </g>
                                        </g>
                                        <g id="Tail-light" transform="translate(100.163780, 19.289426) rotate(-2.000000) translate(-100.163780, -19.289426) translate(98.663780, 13.789426)">
                                            <path d="M0.517435165,4.54620935 C0.517435165,3.33208998 0.347653528,0.922111349 0.347653528,0.922111349 C0.317286806,0.461358369 0.760266946,0.0878442788 1.34175762,0.0878442788 L1.50031817,0.0878442788 C2.07971342,0.0878442788 2.57475262,0.462005082 2.60496609,0.924931986 C2.60496609,0.924931986 2.77417153,3.30847638 2.77417153,4.51078894 C2.77417153,6.14818464 2.41086862,9.30341496 2.41086862,9.30341496 C2.36109403,9.7621395 1.85314652,10.1340092 1.27165585,10.1340092 L1.11309529,10.1340092 C0.533700043,10.1340092 0.105448108,9.76133669 0.155219828,9.29809631 C0.155219828,9.29809631 0.517435165,6.17179825 0.517435165,4.54620935 L0.517435165,4.54620935 Z" id="Combined-Shape" fill="#1C1F34"></path>
                                            <g id="Rectangle-1365" transform="translate(0.700182, 0.665065)">
                                                <mask id="mask-7" fill="white">
                                                    <use xlink:href="#path-6"></use>
                                                </mask>
                                                <use id="Combined-Shape" fill="#C10000" xlink:href="#path-6"></use>
                                                <polygon fill="#FFFFFF" opacity="0.4" mask="url(#mask-7)" transform="translate(1.375708, 6.992906) rotate(-357.000000) translate(-1.375708, -6.992906) " points="0.984683129 5.31855449 1.42872183 5.31855449 1.39855295 8.6672569 0.875708288 8.6672569"></polygon>
                                            </g>
                                        </g>
                                        <g id="Group-10" transform="translate(18.555556, 13.594854)">
                                            <path d="M0,0.516272716 C0,0.231143168 0.236085979,0 0.525220534,0 L1.22532217,0 C1.51539347,0 1.75054271,0.229155298 1.75054271,0.516272716 C1.75054271,0.801402264 1.51445673,1.03254543 1.22532217,1.03254543 L0.525220534,1.03254543 C0.235149243,1.03254543 0,0.803390135 0,0.516272716 L0,0.516272716 Z" id="Combined-Shape" fill="#1C1F34"></path>
                                            <g id="Rectangle-602" transform="translate(0.350120, 0.344163)">
                                                <mask id="mask-9" fill="white">
                                                    <use xlink:href="#path-8"></use>
                                                </mask>
                                                <use id="Mask" fill="#F5A623" xlink:href="#path-8"></use>
                                                <polygon fill="#FFFFFF" mask="url(#mask-9)" points="-0.350120139 0 0.350062153 0 0.350062153 0.344162572 -0.350120139 0.344162572"></polygon>
                                            </g>
                                        </g>
                                        <g id="Side-bumper" transform="translate(21.706521, 25.296786)" fill="#1C1F34">
                                            <rect x="0" y="0" width="58.8176319" height="4.47428659"></rect>
                                        </g>
                                        <polygon id="Rectangle-1103" fill="#1C1F34" points="44.8134063 0.172110144 45.5135885 0.172110144 45.5135885 28.3943645 44.8134063 28.3943645"></polygon>
                                        <polygon id="Rectangle-1103-Copy-2" fill="#1C1F34" points="53.5660618 12.5623668 54.9664844 12.5623668 54.9664844 29.42691 53.5660618 29.42691"></polygon>
                                        <path d="M24.8058539,18.3931251 C22.1290492,16.9286431 22.5288684,9.51806036 22.5288684,9.51806036 L23.4086405,9.51806036 C23.4086405,9.51806036 22.4220766,15.9466855 25.5643855,18.1734564 C28.7066944,20.4002272 29.4069024,29.127189 29.4069024,29.127189 L28.7066945,29.127189 C28.7066945,29.127189 28.3352712,21.0148443 24.8058539,18.3931251 Z" id="Rectangle-1103-Copy" fill="#1C1F34" transform="translate(25.957309, 19.322625) rotate(-356.000000) translate(-25.957309, -19.322625) "></path>
                                        <path d="M20.6315743,11.0713227 C20.6315743,11.0713227 24.1072579,7.63743915 26.0201521,6.0925838 C27.5611239,4.8480933 30.9931725,2.70328512 30.9931725,2.70328512 L32.2373438,1.95906594 L32.6346389,2.04425758 C33.0136076,2.1255195 33.0669807,2.37790229 32.7615641,2.60323503 C32.7615641,2.60323503 29.1401557,5.25134491 27.659726,6.55290968 C26.049036,7.96899678 23.5278655,10.801171 23.5278655,10.801171 L20.6315743,11.0713227 L20.6315743,11.0713227 Z" id="Combined-Shape" fill="#1C1F34"></path>
                                        <g id="Front-bumper" transform="translate(1.225362, 16.004108)">
                                            <path d="M9.18909853,13.8519808 L23.1187026,13.7790924 L25.8049212,13.779093 C25.8049212,9.33788843 24.5188949,5.57106247 21.556067,3.52080183 C20.1276871,2.53237076 17.6908342,2.40919572 15.9297537,2.40919572 C14.2760868,2.40919572 11.9338199,2.42441642 10.5672801,3.24631307 C7.45984338,5.11526101 6.1268125,9.20729543 6.1268125,13.7790924 L9.18909853,13.8519808 Z" id="Oval-29" fill="#242D5F" opacity="0.1"></path>
                                            <path d="M9.0630856,14.4563185 C9.0630856,14.4563185 17.6877932,14.8520443 22.2334025,14.6522692 C23.0109274,14.6180977 24.2549633,13.7886501 25.0324882,13.7544786 C25.0324882,9.59071295 23.9053899,6.4060883 21.1541966,4.48390601 C19.8278457,3.55722153 17.5650571,3.44174115 15.9297705,3.44174115 C14.3942249,3.44174115 12.219266,3.45601102 10.950338,4.22656437 C8.06486535,5.97876043 6.82705278,9.46827859 6.82705278,13.7544786 L9.0630856,14.4563185 Z" id="Oval-29-Copy-12" fill="#1C1F34"></path>
                                            <g id="Group-21" transform="translate(0.000000, 6.367210)" fill="#1C1F34">
                                                <path d="M0.157780272,1.49799013 C0.0819663478,0.743037988 0.644779991,0.142765012 1.41815346,0.157304835 L8.02636984,0.281542734 C8.79826865,0.296054833 9.18793354,0.876743572 8.90183465,1.58493103 C8.90183465,1.58493103 8.19993886,3.20414466 8.06399062,3.99958626 C7.83061953,5.36505496 7.95514254,7.73736844 7.95514254,7.73736844 C7.96937291,8.11505619 7.6710194,8.38525119 7.2828416,8.34017968 L3.55211367,7.90700302 C2.01500661,7.72852877 0.645766757,6.35734074 0.493436615,4.84044306 L0.157780272,1.49799013 L0.157780272,1.49799013 Z" id="Combined-Shape"></path>
                                            </g>
                                            <path d="M23.8648507,0.942722584 C21.9210979,0 19.5966564,0 17.6519783,0 C15.8259119,0 13.2394571,0.0129082531 11.7304516,0.709936212 C8.29905589,2.29493958 6.82705278,5.76528148 6.82705278,9.6424968 C6.96742447,5.98371631 8.45778006,2.75707517 11.7304516,1.24538843 C13.2394571,0.548360468 15.8259119,0.535452214 17.6519783,0.535452214 C19.5966564,0.535452214 20.11821,0.281489205 22.9387427,0.942722558 C24.7673137,1.37140475 30.2102569,4.02025279 23.8648507,0.942722584 Z" id="Combined-Shape" fill="#242D5F" opacity="0.1" transform="translate(16.841399, 4.821248) scale(-1, 1) translate(-16.841399, -4.821248) "></path>
                                        </g>
                                        <path d="M1.02016651,23.0292955 C0.441064205,23.0436657 0.00446075218,22.5934704 0.0447323182,22.0273142 L0.471254135,16.031074 C0.511639014,15.4633248 1.00495573,15.0980554 1.5698721,15.2145548 L1.59419163,15.2195701 C2.16055671,15.3363682 2.58680511,15.8933109 2.54648749,16.4601145 L2.15428296,21.9739065 C2.11385637,22.5422421 1.61292324,23.0145864 1.03252666,23.0289887 L1.02016651,23.0292955 L1.02016651,23.0292955 Z" id="Combined-Shape" fill="#1C1F34"></path>
                                        <path d="M1.0789963,22.318561 C0.789905014,22.3431549 0.57182792,22.1342565 0.592263057,21.8469746 L0.991720244,16.2313124 C1.01199618,15.9462685 1.25216592,15.7816867 1.53189973,15.8648217 L1.55606412,15.8720032 C1.83412107,15.9546399 2.04317718,16.2515327 2.02314115,16.5332039 L1.65124548,21.7614 C1.63114805,22.0439343 1.37976161,22.2929739 1.09140979,22.3175049 L1.0789963,22.318561 L1.0789963,22.318561 Z" id="Combined-Shape" fill="url(#linearGradient-1)"></path>
                                        <g id="Head-light" transform="translate(1.225362, 16.348270)">
                                            <mask id="mask-11" fill="white">
                                                <use xlink:href="#path-10"></use>
                                            </mask>
                                            <use id="Combined-Shape" fill="#1C1F34" xlink:href="#path-10"></use>
                                            <mask id="mask-14" fill="white">
                                                <use xlink:href="#path-13"></use>
                                            </mask>
                                            <use id="Head-light-Copy" fill="url(#linearGradient-12)" xlink:href="#path-13"></use>
                                            <path d="M0.688237153,3.44814767 C1.26830317,3.44814767 1.73853958,2.98587425 1.73853958,2.41563109 C1.73853958,1.84538794 1.26830317,1.38311452 0.688237153,1.38311452 C0.688237153,1.38311452 0.68823716,3.44814767 0.688237153,3.44814767 Z" id="Oval-55" fill="#FFFFFF" mask="url(#mask-14)" transform="translate(1.213388, 2.415631) rotate(-359.000000) translate(-1.213388, -2.415631) "></path>
                                            <polygon id="Rectangle-1109" fill="#FF0000" opacity="0.2" mask="url(#mask-14)" transform="translate(5.052504, 2.581306) scale(-1, 1) translate(-5.052504, -2.581306) " points="3.6760875 0.344162572 6.07881843 0.344162572 6.42892014 4.81844916 3.6760875 4.81844916"></polygon>
                                        </g>
                                        <path d="M26.1071287,29.4550837 C25.9514017,30.1998267 26.4504696,30.8035602 27.2223695,30.8035602 L48.033448,30.8035602 C48.8051055,30.8035602 49.2520978,30.2128834 49.0315486,29.4833047 L48.9974178,29.3703998 C48.776996,28.6412428 47.9697399,28.0501442 47.2013529,28.0501442 L27.7978599,28.0501442 C27.0263424,28.0501442 26.2745544,28.6543931 26.1189352,29.3986207 L26.1071287,29.4550837 L26.1071287,29.4550837 Z" id="Combined-Shape" fill="#1C1F34"></path>
                                        <path d="M27.5028644,30.1152351 L47.7475149,30.1152351 C48.4722065,30.1152351 48.5418887,29.8198967 48.3347629,29.4551073 L48.3027094,29.3986549 C48.0957033,29.0340764 47.6876843,28.7385271 46.9660641,28.7385271 L28.0433284,28.7385271 C27.3187682,28.7385271 26.9628414,29.0406515 26.8166937,29.4127653 L26.8056058,29.4409968 C26.6593569,29.8133684 26.7779451,30.1152351 27.5028644,30.1152351 Z" id="Combined-Shape-Copy-3" fill="url(#linearGradient-1)"></path>
                                        <g id="Rear-bumper" transform="translate(87.380495, 23.315725) scale(-1, 1) translate(-87.380495, -23.315725) translate(72.880495, 15.315725)">
                                            <path d="M1.61336757,11.3417179 C1.49576535,10.5902478 2.0264454,9.98106089 2.80291435,9.98106089 L14.352226,9.98106089 C15.1267967,9.98106089 15.7547104,10.5984937 15.7547104,11.3600032 L15.7547104,13.0764052 C15.7547104,13.837974 15.1280439,14.4553475 14.3576521,14.4553475 L3.49769703,14.4553475 C2.72612303,14.4553475 2.00547673,13.8472688 1.88770108,13.0946904 L1.61336757,11.3417179 L1.61336757,11.3417179 Z" id="Combined-Shape" fill="#1C1F34"></path>
                                            <path d="M0.171747364,9.28641213 C0.108661919,8.71964547 0.529943804,8.26019031 1.11111957,8.26019031 L3.49773135,8.26019031 C4.07961774,8.26019031 4.55132986,8.72193956 4.55132986,9.2917267 L4.55132986,11.3587202 C4.55132986,11.928422 4.08067203,12.3902566 3.5019483,12.3902566 L1.56661045,12.3902566 C0.987053021,12.3902566 0.466275662,11.9324871 0.40300259,11.3640348 L0.171747364,9.28641213 L0.171747364,9.28641213 Z" id="Combined-Shape" fill="#1C1F34"></path>
                                            <path d="M0.834132143,9.2916703 C0.8126143,9.10215111 0.950918358,8.94851546 1.14573005,8.94851546 L3.50058816,8.94851546 C3.69419678,8.94851546 3.85114757,9.10444013 3.85114757,9.2916703 L3.85114757,11.3587766 C3.85114757,11.5482958 3.69579256,11.7019315 3.50369958,11.7019315 L1.45523909,11.7019315 C1.26334886,11.7019315 1.09008754,11.5460068 1.06882959,11.3587766 L0.834132143,9.2916703 L0.834132143,9.2916703 Z" id="Combined-Shape" fill="url(#linearGradient-1)"></path>
                                            <path d="M10.0643951,14.5403637 C10.0643951,14.5403637 20.3865628,14.4674752 23.9939818,14.4674752 C25.5796343,14.4674752 26.6079708,14.1330665 26.6079708,14.1330665 C26.6079708,9.69186194 25.3941724,6.25944533 22.4313482,4.20918469 C21.00297,3.22075362 18.5661201,3.09757858 16.8050418,3.09757858 C15.151377,3.09757858 12.809113,3.11279928 11.4425749,3.93469593 C8.33514207,5.80364387 7.00211285,9.89567829 7.00211285,14.4674752 L10.0643951,14.5403637 Z" id="Oval-29" fill="#242D5F" opacity="0.1"></path>
                                            <path d="M23.436057,0.942722539 C21.7526085,0.104461355 18.8806019,0 16.8050418,0 C14.8560763,0 12.0955463,0.0129082525 10.4849807,0.709936179 C6.82264297,2.29493947 5.25157014,5.76528121 5.25157014,9.64249635 C5.40138922,5.98371603 6.9920497,2.75707504 10.4849807,1.24538837 C12.0955463,0.548360442 14.8560763,0.535452189 16.8050418,0.535452189 C18.8806019,0.535452189 21.7526085,0.639913544 23.436057,1.47817473 C26.7613656,3.13398839 28.2173196,5.85279127 28.3486764,9.36113314 C28.3585135,5.59243017 26.9279629,2.68149214 23.436057,0.942722539 Z" id="Combined-Shape" fill="#242D5F" opacity="0.1"></path>
                                            <path d="M9.93832796,15.1446437 C9.93832796,15.1446437 18.5630356,15.5403695 23.1086449,15.3405943 C23.8861698,15.3064228 25.1302057,14.4769752 25.9077306,14.4428037 C25.9077306,10.2790381 24.7806322,7.09441344 22.029439,5.17223115 C20.7030881,4.24554667 18.4402994,4.1300663 16.8050128,4.1300663 C15.2694672,4.1300663 13.0945084,4.14433617 11.8255804,4.91488951 C8.94010771,6.66708558 7.70229514,10.1566037 7.70229514,14.4428037 L9.93832796,15.1446437 Z" id="Oval-29-Copy-12" fill="#1C1F34"></path>
                                        </g>
                                        <g id="Wheel" transform="translate(9.802958, 21.166720)">
                                            <ellipse id="Oval-29-Copy" fill="#1C1F34" cx="7.70229514" cy="7.57183631" rx="7.70229514" ry="7.57183631"></ellipse>
                                            <ellipse id="Oval-29-Copy-2" fill="url(#linearGradient-1)" cx="7.70229514" cy="7.57180745" rx="3.85114757" ry="3.78590373"></ellipse>
                                            <ellipse id="Oval-29-Copy-4" fill="#1C1F34" cx="7.70232413" cy="7.57180745" rx="1.75051372" ry="1.72087058"></ellipse>
                                            <g id="Group-20" transform="translate(3.976390, 4.474287)" fill="#1C1F34">
                                                <circle id="Oval-35" cx="3.87578507" cy="0.5" r="1"></circle>
                                                <circle id="Oval-35-Copy" cx="3.87578507" cy="6.0067743" r="1"></circle>
                                                <circle id="Oval-35" transform="translate(6.091633, 1.928725) rotate(-300.000000) translate(-6.091633, -1.928725) " cx="6.09163324" cy="1.92872479" r="1"></circle>
                                                <circle id="Oval-35-Copy" transform="translate(1.240399, 4.682083) rotate(-300.000000) translate(-1.240399, -4.682083) " cx="1.24039921" cy="4.68208308" r="1"></circle>
                                                <circle id="Oval-35" transform="translate(5.941724, 4.526246) rotate(-240.000000) translate(-5.941724, -4.526246) " cx="5.94172438" cy="4.52624566" r="1"></circle>
                                                <circle id="Oval-35-Copy" transform="translate(1.090490, 1.772887) rotate(-240.000000) translate(-1.090490, -1.772887) " cx="1.09049036" cy="1.77288736" r="1"></circle>
                                            </g>
                                        </g>
                                        <g id="Wheel" transform="translate(77.373188, 21.166720)">
                                            <ellipse id="Oval-29-Copy" fill="#1C1F34" cx="7.70229514" cy="7.57183631" rx="7.70229514" ry="7.57183631"></ellipse>
                                            <ellipse id="Oval-29-Copy-2" fill="url(#linearGradient-1)" cx="7.70229514" cy="7.57180745" rx="3.85114757" ry="3.78590373"></ellipse>
                                            <ellipse id="Oval-29-Copy-4" fill="#1C1F34" cx="7.70232413" cy="7.57180745" rx="1.75051372" ry="1.72087058"></ellipse>
                                            <g id="Group-20" transform="translate(3.976390, 4.474287)" fill="#1C1F34">
                                                <circle id="Oval-35" cx="3.87578507" cy="0.5" r="1"></circle>
                                                <circle id="Oval-35-Copy" cx="3.87578507" cy="6.0067743" r="1"></circle>
                                                <circle id="Oval-35" transform="translate(6.091633, 1.928725) rotate(-300.000000) translate(-6.091633, -1.928725) " cx="6.09163324" cy="1.92872479" r="1"></circle>
                                                <circle id="Oval-35-Copy" transform="translate(1.240399, 4.682083) rotate(-300.000000) translate(-1.240399, -4.682083) " cx="1.24039921" cy="4.68208308" r="1"></circle>
                                                <circle id="Oval-35" transform="translate(5.941724, 4.526246) rotate(-240.000000) translate(-5.941724, -4.526246) " cx="5.94172438" cy="4.52624566" r="1"></circle>
                                                <circle id="Oval-35-Copy" transform="translate(1.090490, 1.772887) rotate(-240.000000) translate(-1.090490, -1.772887) " cx="1.09049036" cy="1.77288736" r="1"></circle>
                                            </g>
                                        </g>
                                    </g>
                                </g>
                            </g>
                        </g>
                    </g>
                </g>
            </g>
        </g>
    </g>
</svg>
