<svg width="51px" height="43px" viewBox="0 0 51 43" version="1.1" xmlns="http://www.w3.org/2000/svg" xmlns:xlink="http://www.w3.org/1999/xlink">
    <g id="Page-1" stroke="none" stroke-width="1" fill="none" fill-rule="evenodd">
        <g id="estimate---1" transform="translate(-1094.000000, -318.000000)">
            <g id="top" transform="translate(0.000000, 1.000000)">
                <g id="Group" transform="translate(724.000000, 274.000000)">
                    <g id="Group-18">
                        <g id="Group-8" transform="translate(318.000000, 0.000000)">
                            <g id="Group-43" transform="translate(29.000000, 44.000000)">
                                <g id="storage" transform="translate(24.000000, 0.000000)">
                                    <polygon id="Fill-1" fill="#E7EBF6" points="3.25 40.5255 46.2245 40.5255 46.2245 2.8335 3.25 2.8335"></polygon>
                                    <g id="Group-7" transform="translate(0.000000, 2.275500)">
                                        <path d="M46.4271,3.308 C46.4101,3.77333333 46.3956,4.23666667 46.3926,4.69333333 C46.3911,4.90933333 46.4051,5.112 46.4261,5.308 L3.1621,5.308 L3.1621,3.308 L46.4271,3.308 Z" id="Fill-2" fill="#3A427C" opacity="0.2"></path>
                                        <polygon id="Stroke-4" stroke="#1C1F34" stroke-width="2" stroke-linecap="round" stroke-linejoin="round" points="3.25 37.9745 45.75 37.9745 45.75 0.4745 3.25 0.4745"></polygon>
                                        <path d="M0,37.9745 L49,37.9745" id="Stroke-6" stroke="#1C1F34" stroke-width="2" stroke-linecap="round" stroke-linejoin="round"></path>
                                    </g>
                                    <polygon id="Fill-8" fill="#1D2C61" points="10.3375 40.5255 39.1375 40.5255 39.1375 14.953 10.3375 14.953"></polygon>
                                    <polygon id="Stroke-9" stroke="#1C1F34" stroke-width="2" stroke-linecap="round" stroke-linejoin="round" points="10.25 40.25 38.75 40.25 38.75 12.75 10.25 12.75"></polygon>
                                    <polygon id="Fill-11" fill="#677BC5" points="10.3375 27.888 39.1375 27.888 39.1375 10.953 10.3375 10.953"></polygon>
                                    <polygon id="Fill-11-Copy" fill="#E7EBF6" points="10.3375 21.888 39.1375 21.888 39.1375 10.453 10.3375 10.453"></polygon>
                                    <polygon id="Stroke-12" stroke="#1C1F34" stroke-width="2" stroke-linecap="round" stroke-linejoin="round" points="10.25 28.25 38.75 28.25 38.75 10.25 10.25 10.25"></polygon>
                                    <path d="M11.8372,18.56175 L37.6377,18.56175 L11.8372,18.56175 Z" id="Fill-13" fill="#FFFFFF"></path>
                                    <path d="M10.3371,14.25 L38.6371,14.25" id="Stroke-14" stroke="#1C1F34" stroke-linecap="round" stroke-linejoin="round"></path>
                                    <path d="M11.8372,22.17075 L37.6377,22.17075 L11.8372,22.17075 Z" id="Fill-15" fill="#FFFFFF"></path>
                                    <path d="M10.3371,18.25 L38.6371,18.25" id="Stroke-16" stroke="#1C1F34" stroke-linecap="round" stroke-linejoin="round"></path>
                                    <path d="M10.3371,22.25 L38.6371,22.25" id="Stroke-18" stroke="#1C1F34" stroke-linecap="round" stroke-linejoin="round"></path>
                                    <path d="M23,25.25 L26,25.25 L23,25.25 Z" id="Fill-19" stroke="#1C1F34" stroke-width="2" stroke-linecap="round" stroke-linejoin="round"></path>
                                    <polygon id="Fill-21" fill="#3A427C" points="1.25 4.833 48.2245 4.833 48.2245 0.25 1.25 0.25"></polygon>
                                    <polygon id="Stroke-22" stroke="#1C1F34" stroke-width="2" stroke-linecap="round" stroke-linejoin="round" points="1.25 5.25 47.75 5.25 47.75 0.25 1.25 0.25"></polygon>
                                </g>
                            </g>
                        </g>
                    </g>
                </g>
            </g>
        </g>
    </g>
</svg>
