
<svg width="104px" height="39px" viewBox="0 0 104 39" version="1.1" xmlns="http://www.w3.org/2000/svg" xmlns:xlink="http://www.w3.org/1999/xlink">
    <defs>
        <linearGradient x1="50%" y1="0%" x2="50%" y2="97.4669165%" id="linearGradient-1">
            <stop stop-color="#FFFFFF" offset="0%"></stop>
            <stop stop-color="#F9F9FC" offset="97.9591837%"></stop>
        </linearGradient>
        <path d="M1.04660779,0.727025618 L10.4678325,0.891224652 C11.2558179,0.904958158 11.8987944,1.52614611 11.9396742,2.31319025 L12.522239,13.5290814 L11.9599438,25.9823444 C11.9236484,26.7861863 11.2595529,27.4181951 10.4548997,27.4146703 L8.07561263,27.4042476 L2.02317183,27.0970775 C1.23288738,27.0569694 0.609681524,26.4098628 0.599329506,25.618629 L0.283602482,1.48672343 C0.27818363,1.07254532 0.609548485,0.732394769 1.0237266,0.726975917 C1.03135347,0.726876132 1.03898142,0.726892701 1.04660779,0.727025618 Z" id="path-2"></path>
        <linearGradient x1="50%" y1="100%" x2="50%" y2="1.18582589%" id="linearGradient-4">
            <stop stop-color="#1C1F34" stop-opacity="0.2" offset="0%"></stop>
            <stop stop-color="#1C1F34" offset="100%"></stop>
        </linearGradient>
        <path d="M0.0110622356,0.941146433 C0.0110622356,0.590612104 0.290978745,0.306447885 0.636699887,0.306447885 L5.03002293,0.306447885 C5.37555307,0.306447885 5.65566059,0.588128421 5.65566059,0.941146433 L5.65566059,2.84585312 C5.65566059,3.19638745 5.37574408,3.48055167 5.03002293,3.48055167 L0.636699887,3.48055167 C0.291169753,3.48055167 0.0110622356,3.19887113 0.0110622356,2.84585312 L0.0110622356,0.941146433 L0.0110622356,0.941146433 Z" id="path-5"></path>
        <linearGradient x1="50%" y1="0%" x2="50%" y2="97.4669165%" id="linearGradient-6">
            <stop stop-color="#E0E0E0" offset="0%"></stop>
            <stop stop-color="#E7E7E8" offset="100%"></stop>
        </linearGradient>
        <linearGradient x1="50%" y1="100%" x2="50%" y2="0%" id="linearGradient-7">
            <stop stop-color="#000000" stop-opacity="0.2" offset="0%"></stop>
            <stop stop-color="#000000" offset="100%"></stop>
        </linearGradient>
        <path d="M0.310386812,2.23566203 C0.302051222,1.18318002 1.13539246,0.323616384 2.17434919,0.315752921 L7.43214692,0.275958678 C8.46992051,0.26810417 9.31800272,1.11609184 9.32634608,2.16427817 L9.38653562,9.7259631 C9.39489934,10.7767077 8.56158091,11.6401947 7.52262418,11.6546522 L2.26482645,11.7278163 C1.22705286,11.7422573 0.37900765,10.8999801 0.370678227,9.84827674 L0.310386812,2.23566203 L0.310386812,2.23566203 Z" id="path-8"></path>
        <path d="M0.611172351,2.24167076 C0.604333724,1.365519 1.2999264,0.6498731 2.16758083,0.643209711 L7.42287867,0.602850214 C8.28929797,0.59619631 8.99726104,1.30358159 9.00409727,2.17503824 L9.06346688,9.743259 C9.0703305,10.6182084 8.37475809,11.3373948 7.50710365,11.3496459 L2.25180581,11.4238493 C1.38538652,11.4360829 0.677488667,10.7379894 0.670632473,9.85958708 L0.611172351,2.24167076 L0.611172351,2.24167076 Z" id="path-9"></path>
        <linearGradient x1="50%" y1="-1.11022302e-14%" x2="50%" y2="100%" id="linearGradient-10">
            <stop stop-color="#1C1F34" stop-opacity="0.2" offset="1.18582589%"></stop>
            <stop stop-color="#1C1F34" offset="100%"></stop>
        </linearGradient>
        <path d="M17.6053401,21.502008 L17.5884695,21.2315153 C17.5504387,20.6217506 17.9366008,19.7675235 18.448198,19.3259529 L22.3250286,15.979776 C22.7350748,15.6258561 23.5496833,15.3389474 24.1512118,15.3389474 L28.3298895,15.3389474 C28.9284164,15.3389474 29.409375,15.7340738 29.4041206,16.2233349 L29.3518702,22.0686601 C29.3466248,22.5570938 28.8583994,22.9609011 28.2630223,22.9705624 L18.4596977,22.1496517 C18.0106122,22.1569391 17.6280971,21.8668809 17.6053401,21.502008 Z" id="path-11"></path>
        <path d="M0,0.175036795 C0,0.0783666424 0.0766791196,0 0.176062726,0 L0.890146242,0 C0.987383,0 1.06620897,0.0811938257 1.06620897,0.175036795 C1.06620897,0.271706947 0.989529848,0.35007359 0.890146242,0.35007359 L0.176062726,0.35007359 C0.0788259674,0.35007359 0,0.268879764 0,0.175036795 L0,0.175036795 Z" id="path-12"></path>
        <path d="M0.26751532,0 L52.6474124,0 C54.3626175,0 55.8819721,0.915929589 56.0407737,2.56504579 L56.7367662,10.6382178 C56.8956628,12.2883205 55.6344256,13.2032636 53.9190425,13.2032636 L0.267293253,13.2032636 L0.26751532,0 Z" id="path-14"></path>
        <path d="M0.268775275,0.30009359 L52.6580758,0.30009359 C54.2024079,0.30009359 55.5742172,1.08009564 55.7222823,2.56559264 L56.4425918,10.6377243 C56.5905742,12.1223922 55.460683,12.9032234 53.9136226,12.9032234 L0.269429799,12.9032234 L0.268775275,0.30009359 Z" id="path-15"></path>
        <linearGradient x1="50%" y1="95.4777957%" x2="50%" y2="-1.11022302e-14%" id="linearGradient-16">
            <stop stop-color="#FFFFFF" offset="0%"></stop>
            <stop stop-color="#F9F9FC" offset="100%"></stop>
        </linearGradient>
        <path d="M0.59752484,6.1332645 C0.59752484,4.45662114 0.383822728,0.430669178 0.383822728,0.430669178 C0.371566215,0.192817159 0.520699252,-4.26e-14 0.715510977,-4.26e-14 L1.18722218,-4.26e-14 C1.38266506,-4.26e-14 1.5512389,0.193337107 1.56372137,0.435835856 C1.56372137,0.435835856 1.7769973,4.42401183 1.7769973,6.08435053 C1.7769973,8.34551916 1.44859829,13.4423723 1.44859829,13.4423723 C1.43368398,13.6803641 1.26252464,13.8732946 1.06771291,13.8732946 L0.596001708,13.8732946 C0.400558833,13.8732946 0.25435488,13.6810411 0.269418885,13.4402088 C0.269418885,13.4402088 0.59752484,8.37812848 0.59752484,6.1332645 L0.59752484,6.1332645 Z" id="path-17"></path>
        <path d="M0.973983615,0 L4.2347186,0 C4.5928466,0 4.81554765,0.302179132 4.73108907,0.679611479 L4.17350734,3.1713582 C4.08951719,3.54669726 3.7284138,3.85096968 3.37098282,3.85096968 L0.937682975,3.85096968 C0.578451077,3.85096968 0.263729567,3.53582867 0.235218063,3.15358812 L0.37755353,0.697381557 C0.348824769,0.312228358 0.616376618,0 0.973983615,0 Z" id="path-19"></path>
        <linearGradient x1="50%" y1="0%" x2="50%" y2="100%" id="linearGradient-21">
            <stop stop-color="#FFC900" offset="0%"></stop>
            <stop stop-color="#FFF15E" offset="100%"></stop>
        </linearGradient>
        <polygon id="path-22" points="0.990439075 0.700147179 4.19486326 0.700147179 3.57192773 3.1507691 0.872540451 3.1507691"></polygon>
        <linearGradient x1="50%" y1="-1.11022302e-14%" x2="50%" y2="85.3066715%" id="linearGradient-24">
            <stop stop-color="#8388A4" offset="0%"></stop>
            <stop stop-color="#A5A9C1" offset="98.6706792%"></stop>
        </linearGradient>
        <linearGradient x1="50%" y1="95.0426188%" x2="50%" y2="-1.11022302e-14%" id="linearGradient-25">
            <stop stop-color="#A4ACBC" offset="0%"></stop>
            <stop stop-color="#B5BBCA" offset="98.59%"></stop>
        </linearGradient>
    </defs>
    <g id="Page-1" stroke="none" stroke-width="1" fill="none" fill-rule="evenodd">
        <g id="estimate---3" transform="translate(-962.000000, -664.000000)">
            <g id="top" transform="translate(0.000000, 1.000000)">
                <g id="Group" transform="translate(724.000000, 273.000000)">
                    <g id="form" transform="translate(0.000000, 56.000000)">
                        <g id="Group-6-Copy" transform="translate(8.000000, 310.000000)">
                            <g id="trucks" transform="translate(282.500000, 43.500000) scale(-1, 1) translate(-282.500000, -43.500000) translate(230.000000, 24.000000)">
                                <g id="Group">
                                    <g id="shadow" transform="translate(4.500000, 36.938462)" fill="#1F2857">
                                        <path d="M6.56538462,0.376923077 L93.1846154,0.376923077 C93.4968687,0.376923077 93.75,0.630054391 93.75,0.942307692 L93.75,0.942307692 C93.75,1.25456099 93.4968687,1.50769231 93.1846154,1.50769231 L6.56538462,1.50769231 C6.25313131,1.50769231 6,1.25456099 6,0.942307692 L6,0.942307692 C6,0.630054391 6.25313131,0.376923077 6.56538462,0.376923077 Z" id="Shadow" transform="translate(49.875000, 0.942308) scale(-1, 1) translate(-49.875000, -0.942308) "></path>
                                        <rect id="Shadow-Copy-3" transform="translate(97.875000, 0.942308) scale(-1, 1) translate(-97.875000, -0.942308) " x="96" y="0.376923077" width="3.75" height="1.13076923" rx="0.565384615"></rect>
                                        <rect id="Shadow-Copy-4" transform="translate(1.875000, 0.942308) scale(-1, 1) translate(-1.875000, -0.942308) " x="0" y="0.376923077" width="3.75" height="1.13076923" rx="0.565384615"></rect>
                                    </g>
                                    <g id="cargo-van" transform="translate(52.500000, 19.500000) scale(-1, 1) translate(-52.500000, -19.500000) ">
                                        <g id="Back-door" transform="translate(97.746596, 15.769066) rotate(-1.000000) translate(-97.746596, -15.769066) translate(90.746596, 1.269066)">
                                            <path d="M2.46532519,0.142222025 L10.5094623,0.270876386 C11.6616346,0.289302999 12.6136599,1.17523602 12.7147953,2.32310889 C13.0188663,5.77427397 13.1709149,9.519147 13.1709412,13.557728 C13.1709682,17.7123908 13.0169149,21.8666258 12.7087812,26.0204328 L12.7087838,26.020433 C12.6204429,27.2113156 11.6171611,28.1257483 10.4232118,28.1035983 C9.93438052,28.0945296 9.36807914,28.0796149 8.72430773,28.0588543 C6.9786069,28.0025581 4.95506992,27.9011834 2.65369679,27.7547301 L2.65369768,27.7547161 C1.87106643,27.7049115 1.25889129,27.060656 1.24909133,26.2765028 L0.941455983,1.66077504 C0.931103514,0.832412598 1.59423161,0.152499828 2.42259405,0.142147359 C2.4368374,0.141969352 2.45108255,0.141994244 2.46532519,0.142222025 Z" id="Rectangle-1085-Copy" fill="#1C1F34"></path>
                                            <mask id="mask-3" fill="white">
                                                <use xlink:href="#path-2"></use>
                                            </mask>
                                            <use id="Rectangle-1085-Copy-2" fill="url(#linearGradient-1)" xlink:href="#path-2"></use>
                                            <polygon id="Side-bumper-Copy-4" fill="#1C1F34" mask="url(#mask-3)" transform="translate(7.354753, 24.759573) rotate(-359.000000) translate(-7.354753, -24.759573) " points="2.55040771 24.2595728 12.1590973 24.2595728 12.1590973 25.2118093 2.55040771 25.2118093"></polygon>
                                            <polygon id="Side-bumper-Copy-5" fill="#1C1F34" mask="url(#mask-3)" transform="translate(7.322353, 26.322373) rotate(-359.000000) translate(-7.322353, -26.322373) " points="2.5180083 24.5765971 12.1266979 24.5765971 12.1266979 28.0681486 2.5180083 28.0681486"></polygon>
                                            <path d="M10.202557,14.4581567 C10.4623425,14.4581567 10.6729402,14.6726541 10.6729402,14.9349403 L10.6729402,17.4103429 C10.6729402,17.6736632 10.4641536,17.8871265 10.202557,17.8871265 C9.94277154,17.8871265 9.7321738,17.6726291 9.7321738,17.4103429 L9.7321738,14.9349403 C9.7321738,14.67162 9.94096036,14.4581567 10.202557,14.4581567 Z" id="Combined-Shape" fill="#1C1F34" mask="url(#mask-3)"></path>
                                            <polygon id="Curve" fill="#242D5F" opacity="0.1" mask="url(#mask-3)" points="-5.221534 16.663898 12.966528 16.663898 12.966528 16.9812924 -5.221534 16.9812924"></polygon>
                                            <g id="License-plate" mask="url(#mask-3)">
                                                <g transform="translate(7.790027, 21.183768) rotate(-359.000000) translate(-7.790027, -21.183768) translate(4.790027, 19.183768)">
                                                    <g id="Combined-Shape" fill="none">
                                                        <use fill="#FFFFFF" xlink:href="#path-5"></use>
                                                        <use fill-opacity="0.200000003" fill="url(#linearGradient-4)" xlink:href="#path-5"></use>
                                                    </g>
                                                    <path d="M0.627159951,1.20908217 C0.627159951,1.06723021 0.740094805,0.952236474 0.875776397,0.952236474 L4.76876902,0.952236474 C4.9060761,0.952236474 5.01738547,1.06566654 5.01738547,1.20908217 L5.01738547,2.59986373 C5.01738547,2.74171569 4.90445062,2.85670942 4.76876902,2.85670942 L0.875776397,2.85670942 C0.738469325,2.85670942 0.627159951,2.74327935 0.627159951,2.59986373 L0.627159951,1.20908217 L0.627159951,1.20908217 Z" id="Combined-Shape" fill="#FFFFFF"></path>
                                                    <polygon id="Rectangle-1934" fill="#000000" opacity="0.1" points="1.35885538 1.19028224 4.28569004 1.19028224 4.28569004 1.45726942 1.35885538 1.45726942"></polygon>
                                                    <polygon id="Rectangle-1934-Copy" fill="#000000" opacity="0.1" points="1.35885538 2.38056449 4.28569004 2.38056449 4.28569004 2.64755167 1.35885538 2.64755167"></polygon>
                                                    <path d="M1.45666883,1.7763725 L1.45666883,1.59898622 L1.54475761,1.59898622 C1.55314706,1.59898622 1.56123676,1.60022543 1.56902696,1.60270389 C1.57681716,1.60518236 1.58370839,1.60960812 1.58970086,1.61598131 C1.59569332,1.6223545 1.60048722,1.63120602 1.6040827,1.64253614 C1.60767818,1.65386626 1.60947589,1.66838276 1.60947589,1.68608607 C1.60947589,1.71795203 1.60408275,1.74096599 1.59329632,1.75512863 C1.58250988,1.76929128 1.56872742,1.7763725 1.55194853,1.7763725 L1.45666883,1.7763725 Z M1.36261337,1.46939064 L1.36261337,2.22784782 L1.56991181,2.22784782 C1.58908402,2.22784782 1.60775667,2.2235988 1.62593032,2.21510064 C1.64410398,2.20660248 1.66028028,2.19350134 1.67445973,2.17579684 C1.68863917,2.15809233 1.69992265,2.13525386 1.70831049,2.10728075 C1.71669833,2.07930763 1.72089218,2.0462007 1.72089218,2.00795897 C1.72089218,1.9605109 1.71440169,1.9199682 1.70142051,1.88632964 C1.68843933,1.85269108 1.66876814,1.82914444 1.64240636,1.81568902 C1.66157856,1.79940087 1.67605736,1.77850987 1.68584317,1.75301538 C1.69562898,1.7275209 1.70052182,1.69565327 1.70052182,1.65741154 C1.70052182,1.62200253 1.69722664,1.59225941 1.6906362,1.56818128 C1.68404575,1.54410316 1.67475935,1.52480554 1.66277672,1.51028784 C1.6507941,1.49577015 1.63641516,1.48532465 1.61963948,1.47895103 C1.60286379,1.4725774 1.584291,1.46939064 1.56392053,1.46939064 L1.36261337,1.46939064 Z M1.45666883,2.09825224 L1.45666883,1.89005564 L1.55912907,1.89005564 C1.57950139,1.89005564 1.59587888,1.89837634 1.60826205,1.91501799 C1.62064522,1.93165964 1.62683672,1.95945431 1.62683672,1.99840285 C1.62683672,2.0182312 1.62493932,2.03451853 1.62114448,2.04726532 C1.61734964,2.06001212 1.61225664,2.07010318 1.60586532,2.07753881 C1.59947401,2.08497444 1.59208416,2.09028552 1.58369556,2.09347222 C1.57530696,2.09665892 1.56651904,2.09825224 1.55733153,2.09825224 L1.45666883,2.09825224 Z M1.97992846,1.67336885 L1.97992846,1.93149205 L1.86967661,1.93149205 L1.97813087,1.67336885 L1.97992846,1.67336885 Z M1.97992321,2.05580799 L1.97992321,2.22790122 L2.06081421,2.22790122 L2.06081421,2.05580799 L2.11653913,2.05580799 L2.11653913,1.93151844 L2.06081421,1.93151844 L2.06081421,1.48428853 L1.98471675,1.48428853 L1.80256218,1.91770849 L1.80256218,2.05580799 L1.97992321,2.05580799 Z M2.27908518,1.68611671 C2.27908518,1.66911985 2.2807829,1.65424782 2.28417839,1.64150018 C2.28757387,1.62875254 2.29226756,1.61812966 2.29825959,1.60963124 C2.30425163,1.60113281 2.31114236,1.59458204 2.318932,1.58997872 C2.32672164,1.58537541 2.33481077,1.58307378 2.34319961,1.58307378 C2.35638208,1.58307378 2.36706772,1.58661474 2.37525683,1.59369676 C2.38344594,1.60077879 2.38983734,1.60963118 2.39443124,1.62025422 C2.39902513,1.63087725 2.40212096,1.64203127 2.40371884,1.65371661 C2.40531672,1.66540195 2.40611564,1.67620187 2.40611564,1.68611671 C2.40611564,1.71798581 2.4001237,1.74224138 2.38813963,1.75888413 C2.37615557,1.77552689 2.36117571,1.78384814 2.34319961,1.78384814 C2.32602245,1.78384814 2.3110426,1.77552689 2.29825959,1.75888413 C2.28547659,1.74224138 2.27908518,1.71798581 2.27908518,1.68611671 L2.27908518,1.68611671 Z M2.20182326,1.67228863 C2.20182326,1.70911498 2.20701596,1.74133755 2.21740153,1.76895731 C2.2277871,1.79657707 2.2431655,1.81534406 2.26353719,1.82525884 L2.26353719,1.82738343 C2.23837216,1.83800641 2.21889951,1.85925207 2.20511866,1.89112102 C2.19133781,1.92298997 2.18444749,1.96264852 2.18444749,2.01009785 C2.18444749,2.05046519 2.18894118,2.08516642 2.19792869,2.11420258 C2.2069162,2.14323874 2.21889937,2.16731714 2.23387855,2.18643851 C2.24885773,2.20555989 2.26583389,2.2195466 2.28480752,2.22839909 C2.30378115,2.23725158 2.32345352,2.24167776 2.34382521,2.24167776 C2.36339801,2.24167776 2.38257107,2.23689749 2.40134498,2.2273368 C2.42011889,2.21777611 2.43689532,2.2034353 2.45167479,2.18431393 C2.46645425,2.16519255 2.47833755,2.14111415 2.48732506,2.11207799 C2.49631257,2.08304184 2.50080626,2.0486947 2.50080626,2.00903556 C2.50080626,1.96229443 2.4940158,1.92281293 2.48043467,1.89058987 C2.46685355,1.85836682 2.44748076,1.83729822 2.42231573,1.82738343 L2.42231573,1.82525884 C2.44268742,1.81321946 2.45796596,1.79339019 2.4681518,1.76577043 C2.47833765,1.73815067 2.48343049,1.7059281 2.48343049,1.66910175 C2.48343049,1.65068858 2.48103386,1.62997407 2.47624052,1.6069576 C2.47144718,1.58394114 2.46355827,1.56234139 2.45257353,1.54215772 C2.4415888,1.52197405 2.42710914,1.50480048 2.40913412,1.4906365 C2.3911591,1.47647252 2.36918996,1.46939064 2.34322604,1.46939064 C2.32604991,1.46939064 2.30907376,1.47363977 2.29229707,1.48213816 C2.27552039,1.49063655 2.26044157,1.50338394 2.24706017,1.52038071 C2.23367876,1.53737749 2.22279405,1.55862314 2.21440571,1.5841183 C2.20601737,1.60961346 2.20182326,1.63900328 2.20182326,1.67228863 L2.20182326,1.67228863 Z M2.26950497,2.00269312 C2.26950497,1.96444736 2.27669461,1.93523229 2.29107412,1.91504703 C2.30545362,1.89486177 2.3230283,1.88476929 2.3437987,1.88476929 C2.35378446,1.88476929 2.36307109,1.88760227 2.37165885,1.89326831 C2.38024661,1.89893435 2.38783567,1.90707915 2.39442628,1.91770298 C2.40101688,1.9283268 2.40620941,1.94089813 2.410004,1.95541735 C2.41379859,1.96993658 2.41569585,1.98604913 2.41569585,2.0037555 C2.41569585,2.02217012 2.41389844,2.03916798 2.41030357,2.05474958 C2.40670869,2.07033119 2.40161603,2.08361077 2.39502542,2.09458872 C2.38843482,2.10556666 2.38084575,2.11406559 2.37225799,2.12008576 C2.36367023,2.12610592 2.3541839,2.12911596 2.3437987,2.12911596 C2.33381293,2.12911596 2.32422674,2.12610592 2.31503984,2.12008576 C2.30585293,2.11406559 2.29796429,2.10556666 2.29137369,2.09458872 C2.28478308,2.08361077 2.27949071,2.07033119 2.2754964,2.05474958 C2.27150209,2.03916798 2.26950497,2.021816 2.26950497,2.00269312 L2.26950497,2.00269312 Z M2.86887701,1.61388959 L2.86887701,1.48428853 L2.58247626,1.48428853 L2.58247626,1.62451263 L2.78139896,1.62451263 C2.74145444,1.71020557 2.70919973,1.80439557 2.68463385,1.90708546 C2.66006797,2.00977534 2.64538858,2.11671286 2.64059524,2.22790122 L2.73166828,2.22790122 C2.73206773,2.17832679 2.7353631,2.12485803 2.7415545,2.06749334 C2.7477459,2.01012864 2.75653356,1.953473 2.76791775,1.89752472 C2.77930194,1.84157644 2.79348203,1.78881588 2.81045845,1.73924145 C2.82743487,1.68966702 2.84690753,1.64788349 2.86887701,1.61388959 L2.86887701,1.61388959 Z M3.34661739,1.94105912 L3.34661739,1.46939064 L3.25254758,1.46939064 L3.25254758,1.94105912 C3.25254758,1.99771627 3.24615649,2.03932325 3.23337411,2.06588129 C3.22059174,2.09243933 3.19742404,2.10571816 3.16387031,2.10571816 C3.14469675,2.10571816 3.12941805,2.10093778 3.11803374,2.09137688 C3.10664944,2.08181599 3.09776183,2.06942242 3.09137065,2.05419581 C3.08497946,2.0389692 3.08078531,2.02144116 3.07878806,2.00161115 C3.07679081,1.98178115 3.07579221,1.96159734 3.07579221,1.94105912 L3.07579221,1.46939064 L2.9817224,1.46939064 L2.9817224,1.94105912 C2.9817224,2.04445843 2.99760026,2.12094444 3.02935647,2.17051946 C3.06111268,2.22009447 3.10595018,2.2448816 3.16387031,2.2448816 C3.22099154,2.2448816 3.26572917,2.21991742 3.29808455,2.1699883 C3.33043994,2.12005918 3.34661739,2.04375021 3.34661739,1.94105912 L3.34661739,1.94105912 Z M3.54151054,1.9761193 L3.4504349,1.9761193 C3.45003544,2.0228608 3.45482885,2.06322786 3.46481527,2.09722168 C3.47480168,2.1312155 3.48828314,2.15918916 3.50526004,2.18114351 C3.52223695,2.20309785 3.54181002,2.21920926 3.56397986,2.22947823 C3.5861497,2.2397472 3.60901825,2.2448816 3.63258619,2.2448816 C3.66174652,2.2448816 3.68741122,2.23886195 3.70958106,2.22682248 C3.7317509,2.214783 3.75032535,2.19796339 3.76530497,2.17636315 C3.78028459,2.15476291 3.79156907,2.12909088 3.79915874,2.09934628 C3.80674842,2.06960169 3.8105432,2.03737886 3.8105432,2.00267684 C3.8105432,1.96018456 3.80545021,1.92530601 3.79526406,1.89804013 C3.78507792,1.87077425 3.77299454,1.84899729 3.75901356,1.83270858 C3.74503258,1.81641988 3.73095195,1.80455763 3.71677124,1.79712148 C3.70259053,1.78968533 3.69150578,1.78455092 3.68351665,1.78171811 C3.65675305,1.76967863 3.63508286,1.75976391 3.61850541,1.75197366 C3.60192797,1.74418341 3.58894582,1.73639328 3.57955859,1.72860303 C3.57017136,1.72081277 3.56388002,1.71231445 3.56068436,1.70310779 C3.55748871,1.69390113 3.55589091,1.68186183 3.55589091,1.66698953 C3.55589091,1.65070083 3.55788816,1.63724514 3.56188273,1.62662207 C3.56587729,1.615999 3.57097029,1.60714658 3.57716186,1.60006453 C3.58335344,1.59298249 3.59024396,1.58802513 3.59783364,1.58519231 C3.60542331,1.58235949 3.61301287,1.5809431 3.62060255,1.5809431 C3.63218679,1.5809431 3.64287209,1.58271359 3.65265878,1.58625461 C3.66244547,1.58979563 3.67113352,1.59581528 3.67872319,1.60431374 C3.68631287,1.61281219 3.69240449,1.62449739 3.69699824,1.63936969 C3.70159199,1.65424199 3.70428828,1.67300913 3.70508719,1.69567168 L3.79616284,1.69567168 C3.79616284,1.65176299 3.79146929,1.61440576 3.78208206,1.58359886 C3.77269483,1.55279196 3.76001228,1.52747402 3.74403401,1.50764429 C3.72805575,1.48781456 3.70978089,1.47347364 3.68920887,1.46462108 C3.66863686,1.45576852 3.64716639,1.45134231 3.62479682,1.45134231 C3.60562291,1.45134231 3.58644928,1.45594557 3.56727536,1.46515223 C3.54810145,1.47435889 3.53092507,1.48852277 3.51574572,1.50764429 C3.50056637,1.52676582 3.48828327,1.55066736 3.47889604,1.57934965 C3.46950881,1.60803194 3.46481527,1.6418482 3.46481527,1.68079945 C3.46481527,1.71550148 3.46851018,1.74506858 3.47590013,1.76950164 C3.48329008,1.7939347 3.49297675,1.81429527 3.50496045,1.83058398 C3.51694415,1.84687268 3.53052547,1.86015132 3.54570482,1.87042029 C3.56088417,1.88068926 3.57646274,1.88936463 3.592441,1.89644668 C3.60801981,1.90423693 3.62339866,1.91131887 3.63857801,1.91769271 C3.65375736,1.92406655 3.66733868,1.93150259 3.67932237,1.94000104 C3.69130607,1.9484995 3.70099275,1.95912241 3.70838269,1.97187009 C3.71577264,1.98461777 3.71946756,2.00126033 3.71946756,2.02179827 C3.71946756,2.04091979 3.7166714,2.05667711 3.71107901,2.06907069 C3.70548662,2.08146427 3.69849623,2.09120194 3.69010765,2.09828398 C3.68171906,2.10536603 3.67273142,2.11014634 3.66314446,2.11262505 C3.6535575,2.11510377 3.64456987,2.11634311 3.63618128,2.11634311 C3.62379812,2.11634311 3.61181461,2.11368738 3.60023037,2.10837585 C3.58864613,2.10306431 3.57856,2.09492008 3.56997168,2.08394291 C3.56138337,2.07296574 3.55449284,2.05862481 3.54929991,2.0409197 C3.54410697,2.02321458 3.54151054,2.00161466 3.54151054,1.9761193 L3.54151054,1.9761193 Z M4.0240073,1.9346959 L4.07972389,1.65638846 L4.08092209,1.65638846 L4.13484137,1.9346959 L4.0240073,1.9346959 Z M4.03301909,1.46939064 L3.87125317,2.22784782 L3.96591619,2.22784782 L3.99946764,2.05894769 L4.15943616,2.05894769 L4.19178934,2.22784782 L4.28944802,2.22784782 L4.12947951,1.46939064 L4.03301909,1.46939064 Z" id="B487USA" fill="#1C1F34" transform="translate(2.826031, 1.951342) scale(-1, 1) translate(-2.826031, -1.951342) "></path>
                                                </g>
                                            </g>
                                            <g id="Group-14" mask="url(#mask-3)">
                                                <g transform="translate(6.561076, 7.943788) rotate(-1.000000) translate(-6.561076, -7.943788) translate(1.561076, 1.943788)" id="Combined-Shape">
                                                    <g fill="none" opacity="0.5">
                                                        <use fill="url(#linearGradient-6)" xlink:href="#path-8"></use>
                                                        <use fill-opacity="0.3" fill="url(#linearGradient-7)" xlink:href="#path-8"></use>
                                                    </g>
                                                    <g fill="none">
                                                        <use fill="#FFFFFF" xlink:href="#path-9"></use>
                                                        <use fill-opacity="0.05" fill="url(#linearGradient-7)" xlink:href="#path-9"></use>
                                                    </g>
                                                    <path d="M1.51390315,2.26344792 C1.51133178,1.9142467 1.78957016,1.62888123 2.13478415,1.62607103 L7.40758874,1.58314803 C7.75306322,1.58033571 8.03522975,1.86237129 8.03783399,2.2142654 L8.09388627,9.78822201 C8.09648663,10.1395908 7.81827174,10.428627 7.47305775,10.4337938 L2.20025316,10.5127103 C1.85477868,10.5178809 1.57261215,10.2363258 1.57006039,9.88978778 L1.51390315,2.26344792 L1.51390315,2.26344792 Z" fill="#FFFFFF"></path>
                                                </g>
                                            </g>
                                            <path d="M1.87088345,27.7652239 L6.74223603,27.9676012 C6.74223603,27.9676012 7.22551333,22.5560282 6.76289458,14.1911341 C6.30027584,5.82623995 5.12264605,-1.00659506 5.12264605,-1.00659506 L1.13919855,-0.80611751 L1.87088345,27.7652239 Z" id="Car-base" fill="#242D5F" opacity="0.1" mask="url(#mask-3)"></path>
                                        </g>
                                        <path d="M95.038323,29.2920188 C95.038323,29.2920188 95.149095,25.4945496 95.1490938,17.5348614 C95.1490926,9.57517331 93.7785039,2.41629819 93.7785039,2.41629819 C93.5592806,1.08181443 92.2890136,1.58927964e-06 90.9393595,1.58867218e-06 C90.9393595,1.58867218e-06 37.4788538,-1.98673615e-06 28.9503675,1.59001633e-06 C26.4982329,2.61841433e-06 23.6618397,0.719173521 22.1495529,1.94353209 C17.9687798,5.32831698 12.747122,10.0042852 10.5299258,11.3876859 C7.39100922,13.3461862 3.33404296,14.2823222 1.42550917,19.0748636 C0.297848785,21.9065448 0.918075763,28.6912386 3.26339258,30.3750056 C3.87911548,30.8170499 5.06302248,32.3531549 14.9571642,32.4265777 C14.9702608,32.6032367 15.1197083,32.748594 15.3021414,32.748594 L92.3875758,32.748594 C92.5764426,32.748594 92.7334845,32.5931396 92.7334845,32.4013769 L92.7334845,31.6598453 C93.8517863,31.3832463 94.8342532,30.422006 95.038323,29.2920188 Z" id="Combined-Shape" fill="#1C1F34"></path>
                                        <polygon id="Rectangle-762" fill="#1C1F34" points="10.9605054 32.748594 80.618715 32.748594 80.618715 34.1489418 10.9605054 34.1489418"></polygon>
                                        <path d="M94.3275738,29.2919978 C94.3275738,29.2919978 94.4383066,25.4945327 94.4383055,17.5348532 C94.4383043,9.57517367 92.9697504,2.42331304 92.9697504,2.42331304 C92.8049768,1.47165577 91.8912121,0.700185124 90.9245619,0.700185123 C90.9245619,0.700185123 39.0140434,0.366939797 29.3997951,0.700185124 C27.0088285,0.783059879 24.7976701,0.930476327 22.8382139,2.42331301 C18.0211346,6.09326637 12.685209,11.5969607 10.5047379,12.4758107 C7.60251261,13.6455674 3.14043572,16.0650605 2.23757101,19.432554 C0.890527501,24.4567401 3.44917844,30.931982 3.54129357,30.9981373 C4.69145626,31.8241617 23.0628895,32.0308768 46.0699651,32.0483965 C55.9140506,32.0558928 64.9749785,32.1613274 73.1761823,32.0483965 L92.375196,32.0483965 C92.5639961,32.0483965 92.7209824,31.8929423 92.7209824,31.7011798 L92.7209824,31.3923889 C93.5283135,30.9628454 94.1673687,30.1794079 94.3275738,29.2919978 Z" id="Combined-Shape" fill="url(#linearGradient-1)"></path>
                                        <path d="M1.60068962,16.253264 C1.60068962,16.253264 7.33745301,15.2242517 10.2526373,15.0985818 C12.4248817,15.0049391 16.8629756,15.5953263 16.8629756,15.5953263 L16.8629756,15.9454076 C16.8629756,15.9454076 12.4111288,15.3556133 10.2320079,15.4495524 C7.32370013,15.5749259 1.60068962,16.6033453 1.60068962,16.6033453 L1.60068962,16.253264 Z" id="Curve" fill="#242D5F" opacity="0.1" transform="translate(9.231833, 15.845929) rotate(-19.000000) translate(-9.231833, -15.845929) "></path>
                                        <g id="Combined-Shape" transform="translate(23.495024, 19.154755) scale(1, -1) translate(-23.495024, -19.154755) ">
                                            <use fill="#FFFFFF" xlink:href="#path-11"></use>
                                            <use fill-opacity="0.05" fill="url(#linearGradient-10)" xlink:href="#path-11"></use>
                                        </g>
                                        <path d="M15.303465,21.5318219 C15.303465,21.5318219 29.1008649,18.7311263 35.9995649,18.7311263 L94.5574495,18.7311263 L94.5574495,19.0812133 L36.1813401,19.0812133 C29.3432318,19.0812133 15.6670154,21.5318219 15.6670154,21.5318219 L15.303465,21.5318219 Z" id="Curve" fill="#242D5F" opacity="0.1"></path>
                                        <polygon id="Curve" fill="#000000" opacity="0.2" points="19.4900713 26.0969288 75.2877231 26.0969288 75.2877231 27.4972766 19.4900713 27.4972766"></polygon>
                                        <g id="Group-11" transform="translate(13.448291, 24.696581)" fill="#1C1F34">
                                            <rect id="Side-bumper-Copy-2" x="0" y="0" width="63.2610617" height="4.55111686"></rect>
                                        </g>
                                        <g id="Group-2" transform="translate(20.428264, 21.196774) scale(-1, 1) translate(-20.428264, -21.196774) translate(9.928264, 10.196774)" fill="#1C1F34">
                                            <path d="M17.2251726,10.6442486 C15.4486834,7.78870213 15.9328075,1.39603475 15.9328075,1.39603475 L16.3765493,0.626084936 C16.3765493,0.626084936 15.6649852,7.14522945 17.4207836,9.84812903 C19.1765821,12.5510286 18.5861646,19.6795785 18.5861646,19.6795785 L17.5653965,21.8397649 C17.5653965,21.8397649 19.0016619,13.499795 17.2251726,10.6442486 Z" id="Rectangle-1103-Copy" transform="translate(17.277095, 11.232925) scale(-1, 1) rotate(-8.000000) translate(-17.277095, -11.232925) "></path>
                                            <path d="M1.86184306,5.25703096 C2.17997575,5.25703096 2.43787326,5.51291881 2.43787326,5.82686108 L2.43787326,8.09166117 C2.43787326,8.40636965 2.18219372,8.66149128 1.86184306,8.66149128 C1.54371037,8.66149128 1.28581287,8.40560343 1.28581287,8.09166117 L1.28581287,5.82686108 C1.28581287,5.51215259 1.54149241,5.25703096 1.86184306,5.25703096 Z" id="Combined-Shape" transform="translate(1.861843, 6.959261) rotate(90.000000) translate(-1.861843, -6.959261) "></path>
                                        </g>
                                        <g id="Group-10" transform="translate(9.211931, 17.526801)">
                                            <path d="M0,0.525137083 C0,0.235111881 0.239653763,0 0.533157784,0 L1.24383952,0 C1.53829443,0 1.7769973,0.233089878 1.7769973,0.525137083 C1.7769973,0.815162286 1.53734354,1.05027417 1.24383952,1.05027417 L0.533157784,1.05027417 C0.238702871,1.05027417 0,0.817184288 0,0.525137083 L0,0.525137083 Z" id="Combined-Shape" fill="#1C1F34"></path>
                                            <g id="Rectangle-602" transform="translate(0.355421, 0.350074)">
                                                <mask id="mask-13" fill="white">
                                                    <use xlink:href="#path-12"></use>
                                                </mask>
                                                <use id="Mask" fill="#F5A623" xlink:href="#path-12"></use>
                                                <polygon fill="#FFFFFF" mask="url(#mask-13)" points="-0.355420632 0 0.355367703 0 0.355367703 0.35007359 -0.355420632 0.35007359"></polygon>
                                            </g>
                                        </g>
                                        <g id="Group-15" transform="translate(33.288120, 2.518971)">
                                            <g id="Combined-Shape" opacity="0.5">
                                                <use fill="url(#linearGradient-6)" xlink:href="#path-14"></use>
                                                <use fill-opacity="0.3" fill="url(#linearGradient-7)" xlink:href="#path-14"></use>
                                            </g>
                                            <g id="Combined-Shape">
                                                <use fill="#FFFFFF" xlink:href="#path-15"></use>
                                                <use fill-opacity="0.05" fill="url(#linearGradient-7)" xlink:href="#path-15"></use>
                                            </g>
                                            <path d="M0.269092851,1.20032096 L52.6935555,1.20032096 C53.723346,1.20032096 54.6481575,1.58072214 54.758738,2.56749288 L55.5681552,10.6358241 C55.6789334,11.6243595 54.9369143,12.002996 53.9028175,12.002996 L0.270411645,12.002996 L0.269092851,1.20032096 Z" id="Combined-Shape" fill="url(#linearGradient-16)"></path>
                                        </g>
                                        <g id="Tail-light" transform="translate(94.040190, 18.028013) rotate(-2.000000) translate(-94.040190, -18.028013) translate(92.540190, 9.528013)">
                                            <path d="M0.702972461,7.33017777 C0.702972461,5.44395721 0.530622782,1.69988447 0.530622782,1.69988447 C0.499796746,0.984072041 0.949477208,0.40379141 1.53976325,0.40379141 L1.70072212,0.40379141 C2.28888105,0.40379141 2.79140799,0.985076755 2.82207845,1.70426653 C2.82207845,1.70426653 2.99384322,5.4072718 2.99384322,7.27514964 C2.99384322,9.81896 2.62504515,14.7208341 2.62504515,14.7208341 C2.57451769,15.4334952 2.0588872,16.0112212 1.46860116,16.0112212 L1.30764228,16.0112212 C0.719483355,16.0112212 0.28475387,15.432248 0.335278414,14.7125712 C0.335278414,14.7125712 0.702972461,9.85564542 0.702972461,7.33017777 L0.702972461,7.33017777 Z" id="Combined-Shape" fill="#1C1F34"></path>
                                            <g id="Rectangle-1365" transform="translate(0.710788, 1.300601)">
                                                <mask id="mask-18" fill="white">
                                                    <use xlink:href="#path-17"></use>
                                                </mask>
                                                <use id="Combined-Shape" fill="#C10000" xlink:href="#path-17"></use>
                                                <polygon fill="#FFFFFF" opacity="0.4" mask="url(#mask-18)" transform="translate(1.566649, 10.857336) rotate(-357.000000) translate(-1.566649, -10.857336) " points="1.1772707 8.25610631 1.62801817 8.25610631 1.59739349 13.4585651 1.06664941 13.4585651"></polygon>
                                            </g>
                                        </g>
                                        <g id="Head-light" transform="translate(0.000000, 20.145464)">
                                            <mask id="mask-20" fill="white">
                                                <use xlink:href="#path-19"></use>
                                            </mask>
                                            <use id="Combined-Shape" fill="#1C1F34" xlink:href="#path-19"></use>
                                            <mask id="mask-23" fill="white">
                                                <use xlink:href="#path-22"></use>
                                            </mask>
                                            <use id="Head-light-Copy-2" fill="url(#linearGradient-21)" xlink:href="#path-22"></use>
                                            <path d="M0.885942698,2.75940618 C1.36187014,2.75940618 1.74768556,2.38994978 1.74768556,1.9342022 C1.74768556,1.47845463 1.36187014,1.10899823 0.885942698,1.10899823 C0.885942698,1.10899823 0.885942704,2.75940618 0.885942698,2.75940618 Z" id="Oval-55" fill="#FFFFFF" mask="url(#mask-23)" transform="translate(1.385943, 1.934202) rotate(-357.000000) translate(-1.385943, -1.934202) "></path>
                                            <polygon id="Rectangle-1109" fill="#FF0000" opacity="0.2" mask="url(#mask-23)" points="3.40654161 0 4.63422985 0 4.63422985 3.57586609 2.7554494 3.57586609"></polygon>
                                        </g>
                                        <path d="M39.3360396,15.4538053 C39.6541722,15.4538053 39.9120697,15.7096932 39.9120697,16.0236354 L39.9120697,18.2884355 C39.9120697,18.603144 39.6563902,18.8582656 39.3360396,18.8582656 C39.0179069,18.8582656 38.7600094,18.6023778 38.7600094,18.2884355 L38.7600094,16.0236354 C38.7600094,15.708927 39.0156889,15.4538053 39.3360396,15.4538053 Z" id="Combined-Shape" fill="#1C1F34" transform="translate(39.336040, 17.156035) rotate(90.000000) translate(-39.336040, -17.156035) "></path>
                                        <polygon id="Rectangle-1103-Copy-4" fill="#1C1F34" transform="translate(66.317467, 15.440643) rotate(-270.000000) translate(-66.317467, -15.440643) " points="65.7843629 4.76299788 66.8505719 4.76299788 66.8505719 26.1182878 65.7843629 26.1182878"></polygon>
                                        <polygon id="Rectangle-1103-Copy-3" fill="#1C1F34" points="55.0797709 2.51897064 55.7905593 2.51897064 55.7905593 33.2772287 55.0797709 33.2772287"></polygon>
                                        <polygon id="Rectangle-1103-Copy-7" fill="#1C1F34" points="33.1672818 0.22053141 33.8780701 0.22053141 33.8780701 32.836059 33.1672818 32.836059"></polygon>
                                        <g id="Window" transform="translate(12.240655, 2.275372)">
                                            <path d="M0.666242828,10.55268 C0.666242828,10.55268 9.51477801,1.8932031 11.6413245,1.00259509 C13.767871,0.111987077 15.1417451,0.211810692 16.0340583,0.134294551 L17.4132565,0.181165064 C18.6686805,0.0721051193 19.5578691,0.938275527 19.3985649,2.12137995 L19.2223363,8.74090503 C19.0633679,9.92151606 17.9202035,10.9886206 16.667973,11.1244619 L1.9281447,12.5229007 C0.319041242,12.6974554 -0.260571074,11.8045792 0.666242828,10.55268 Z" id="Combined-Shape" fill="#1C1F34"></path>
                                            <path d="M1.3764463,11.0569526 C1.3764463,11.0569526 8.11817071,4.35889016 10.6679953,2.40002227 C13.2178199,0.441154373 15.0982745,0.852772052 15.8016915,0.793859679 L17.6026211,0.816175711 C18.3081539,0.757086136 18.8068033,1.24799271 18.7166075,1.91101495 L18.4616743,8.95183977 C18.3713791,9.61559237 17.7253283,10.2146693 17.0226091,10.2894972 L1.78537586,11.7050603 C1.25807731,11.7612088 1.0741491,11.4722007 1.3764463,11.0569526 Z" id="Combined-Shape" fill="url(#linearGradient-24)"></path>
                                            <path d="M18.1354515,3.40999531 C18.156072,3.08428188 18.4543763,2.82023897 18.8024251,2.82023897 L18.6148951,2.82023897 C18.9626339,2.82023897 19.244532,3.08591476 19.244532,3.40999531 L19.244532,5.61625385 C19.244532,5.94196729 18.9654691,6.20601019 18.6165559,6.20601019 L18.5864155,6.20601019 C18.2395939,6.20601019 17.975259,5.9403344 17.9957761,5.61625385 L18.1354515,3.40999531 L18.1354515,3.40999531 Z" id="Combined-Shape" fill="#1C1F34"></path>
                                            <path d="M18.2692027,7.12935865 L18.5916656,7.12935865 C18.952238,7.12935865 19.1646794,7.48357339 19.0648493,7.92636312 L17.9419708,10.4307619 L16.639402,10.4307619 L17.3872827,7.90339104 C17.5137813,7.47590476 17.9074201,7.12935865 18.2692027,7.12935865 Z" id="Combined-Shape" fill="#1C1F34"></path>
                                            <g id="Steering-Wheel" transform="translate(6.170610, 7.538650)" fill="#1C1F34">
                                                <path d="M2.06907674,3.94111237 C2.19991145,4.18936511 2.49578491,3.93381874 2.73173329,3.79625879 C2.96932666,3.6577398 3.05354814,3.68968335 2.92352141,3.44296372 L1.3420087,0.442117361 C1.21117399,0.193864627 0.915300533,0.106906335 0.679352152,0.244466287 C0.441758781,0.382985282 0.357537302,0.693546389 0.487564028,0.940266015 L1.34737061,2.57170877 L0.275867809,3.48856445 L0.75024933,4.31894481 L1.98055074,3.77313843 L2.06907674,3.94111237 Z" id="Combined-Shape"></path>
                                            </g>
                                            <polygon id="Rectangle-1111" fill="#1C1F34" points="0.651295738 11.1130313 3.70333076 8.18572013 7.75213949 11.1130313 0.976937362 12.257061"></polygon>
                                            <g id="Mirror" transform="translate(0.873917, 7.230867)">
                                                <path d="M0.0131002254,4.59508692 C-0.109786245,3.34579768 0.672330834,1.20234514 0.672330834,1.20234514 C0.812993301,0.77633279 1.31543306,0.321095254 1.79411653,0.185669517 L2.31936151,0.0370709322 C2.79824418,-0.0984111584 3.22156903,0.148732566 3.26542701,0.594601851 L3.9008523,7.05446656 C3.94446719,7.49786447 3.57318302,7.88895221 3.07537226,7.92768928 L2.1680863,7.9982896 C1.66857137,8.03715928 1.11519228,7.72977759 0.938776755,7.31532022 C0.938776755,7.31532022 0.0990667741,5.4690406 0.0131002254,4.59508692 L0.0131002254,4.59508692 Z" id="Combined-Shape" fill="#242D5F" opacity="0.1"></path>
                                                <path d="M0.0134804744,3.84536764 C-0.0853205082,2.77794436 0.391378622,1.05114764 0.391378622,1.05114764 C0.492435633,0.637314379 0.917324442,0.18362869 1.33892727,0.0383179371 L1.32121561,0.0444224853 C1.74347527,-0.101114651 2.11741644,0.122649973 2.1564848,0.544735625 L2.65295407,5.90847652 C2.69200085,6.33032897 2.36325727,6.70211099 1.91292389,6.73935128 L1.71021538,6.75611425 C1.26246122,6.79314126 0.781509676,6.49339815 0.641962321,6.09130484 C0.641962321,6.09130484 0.0825977617,4.59209506 0.0134804744,3.84536764 L0.0134804744,3.84536764 Z" id="Combined-Shape" fill="#1C1F34"></path>
                                            </g>
                                            <g id="Reflection" opacity="0.1" transform="translate(7.676503, 1.589054)" fill="#FFFFFF">
                                                <path d="M0.144462768,4.388533 L3.91564056,0.140508822 C4.03029679,0.0113548907 4.2339692,-0.00552709211 4.37270099,0.104503389 C4.51047226,0.213772069 4.52685372,0.409706788 4.41455447,0.536205716 L0.643376673,4.7842299 C0.528720443,4.91338383 0.325048037,4.93026581 0.186316251,4.82023533 C0.0485449802,4.71096665 0.0321635141,4.51503193 0.144462768,4.388533 Z" id="Rectangle-1113"></path>
                                                <path d="M2.9923256,3.18234886 C2.92344035,3.12771407 2.91590777,3.02900459 2.97234808,2.9654268 L4.43739193,1.31511269 C4.49524389,1.24994473 4.59999929,1.24300374 4.66686994,1.2960407 L4.66686994,1.2960407 C4.73575518,1.35067548 4.74328777,1.44938497 4.68684746,1.51296275 L3.22180361,3.16327686 C3.16395165,3.22844482 3.05919624,3.23538581 2.9923256,3.18234886 L2.9923256,3.18234886 L2.9923256,3.18234886 Z" id="Rectangle-1113-Copy"></path>
                                            </g>
                                        </g>
                                        <g id="Front-bumper" transform="translate(0.447782, 21.545812)">
                                            <path d="M0.0558862895,4.62100037 C-0.161871857,3.80901406 0.275871819,3.1507691 1.03609638,3.1507691 L11.8259268,3.1507691 C12.58504,3.1507691 13.2004229,3.83838774 13.2004229,4.68465556 L13.2004229,11.9745764 C13.2004229,12.8217185 12.5966199,13.3771261 11.8557443,13.2159738 L3.0638507,11.1156238 C2.32120522,10.9540866 1.54196386,10.1623528 1.3248861,9.35290356 L0.0558862895,4.62100037 Z" id="Combined-Shape" fill="#1C1F34"></path>
                                            <path d="M8.37801151,11.7304021 C8.37801151,11.7304021 18.7243793,11.3153416 22.3402558,11.3153416 C23.9296258,11.3153416 24.9603733,10.9825374 24.9603733,10.9825374 C24.9603733,6.56264263 23.7437291,3.14669546 20.7739586,1.1062724 C19.3422316,0.122584015 16.8996686,-6.09653295e-18 15.1344616,-6.09653295e-18 C13.4769197,-6.09653295e-18 11.1291644,0.0151476631 9.75942244,0.833100689 C6.64470434,2.69308103 5.30854986,6.76548103 5.30854986,11.3153416 L8.37801151,11.7304021 Z" id="Oval-29" fill="#242D5F" opacity="0.1"></path>
                                            <path d="M8.49821471,11.976928 C8.49821471,11.976928 16.5085698,12.6084478 21.0901293,12.4017527 C21.6527868,12.3763686 23.396557,11.5652174 23.9592145,11.5398334 C23.9592145,7.40930489 22.8416504,3.99095849 20.1829282,2.08411997 C18.9011577,1.16483272 16.7144242,1.05027417 15.1341016,1.05027417 C13.6501677,1.05027417 11.5483119,1.06443013 10.3220342,1.82883255 C7.5335459,3.56704176 6.33733777,7.02870494 6.33733777,11.2806905 L8.49821471,11.976928 Z" id="Oval-29-Copy-12" fill="#1C1F34"></path>
                                        </g>
                                        <g id="Rear-bumper" transform="translate(82.294250, 28.045812) scale(-1, 1) translate(-82.294250, -28.045812) translate(68.794250, 21.545812)">
                                            <g id="Group-5" transform="translate(0.000000, 3.150769)" fill="#1C1F34">
                                                <path d="M10.4293828,4.55111327 C11.2137598,4.55111327 11.8518737,3.92313905 11.8518737,3.14849359 L11.8518737,1.40261968 C11.8518737,0.628034567 11.9252419,0 11.1389312,0 L1.5691283,0 C0.783091772,0 0.185590318,0.625195429 0.235183949,1.39641307 L0.412942653,3.67377822 C0.47239952,4.44649307 1.70795606,7.47989468 2.04892882,7.98444823 C2.38990158,8.48900178 3.64917686,8.46258739 3.64917686,8.46258739 C4.42566491,8.56571525 4.98035605,7.65935593 4.88240207,6.89031914 L4.58445206,4.55111327 L10.4293828,4.55111327 Z" id="Combined-Shape"></path>
                                            </g>
                                            <path d="M23.3687771,10.8898731 C24.9784078,10.8898731 26.0222949,10.5695827 26.0222949,10.5695827 C26.0222949,6.31588051 24.7901414,3.02837647 21.7825133,1.06467542 C20.3325352,0.11797473 17.8588352,-5.86729703e-18 16.0711259,-5.86729703e-18 C14.3924543,-5.86729703e-18 12.0147706,0.0145780954 10.6275677,0.801775246 C7.47314421,2.59181841 6.11995691,6.51109198 6.11995691,10.8898731 C6.11995691,10.8898731 19.7068067,10.8898731 23.3687771,10.8898731 Z" id="Oval-29" fill="#242D5F" opacity="0.1"></path>
                                            <path d="M9.65047157,11.8685885 C13.8885045,12.0784944 17.9340906,11.8685885 22.1299591,11.8685885 C23.1379064,11.8685885 23.8830355,11.1821767 24.8909829,11.1821767 C24.8909829,7.21156756 23.8560075,3.87710569 21.1706241,2.04409315 C19.8760001,1.16039742 17.6673384,1.05027417 16.0711686,1.05027417 C14.572354,1.05027417 12.4494211,1.06388206 11.2108465,1.79868955 C8.39439562,3.4696015 7.15816624,7.09481291 7.15816624,11.1821767 C7.8776681,11.1821767 8.9237394,11.8325941 9.65047157,11.8685885 Z" id="Oval-29-Copy-12" fill="#1C1F34"></path>
                                        </g>
                                        <g id="Wheel" transform="translate(8.437151, 23.494872)">
                                            <ellipse id="Oval-29-Copy" fill="#1C1F34" cx="7.46338338" cy="7.35181237" rx="7.46338338" ry="7.35181237"></ellipse>
                                            <ellipse id="Oval-29-Copy-2" fill="url(#linearGradient-25)" cx="7.46338338" cy="7.35181237" rx="4.62017711" ry="4.55111686"></ellipse>
                                            <ellipse id="Oval-29-Copy-5" fill="#1C1F34" cx="7.46335692" cy="7.35178567" rx="2.48778564" ry="2.45059522"></ellipse>
                                            <g id="Group-12" transform="translate(3.198574, 2.500843)" fill="#1C1F34">
                                                <circle id="Oval-35-Copy" cx="4.40941524" cy="8.50173878" r="1"></circle>
                                                <circle id="Oval-35" transform="translate(5.565044, 1.751612) rotate(-340.000000) translate(-5.565044, -1.751612) " cx="5.56504425" cy="1.75161206" r="1"></circle>
                                                <circle id="Oval-35-Copy" transform="translate(1.994926, 7.740667) rotate(-320.000000) translate(-1.994926, -7.740667) " cx="1.99492637" cy="7.74066705" r="1"></circle>
                                                <circle id="Oval-35" transform="translate(7.285380, 3.300848) rotate(-300.000000) translate(-7.285380, -3.300848) " cx="7.28538016" cy="3.30084786" r="1"></circle>
                                                <circle id="Oval-35-Copy" transform="translate(0.642567, 5.627468) rotate(-280.000000) translate(-0.642567, -5.627468) " cx="0.64256686" cy="5.62746846" r="1"></circle>
                                                <circle id="Oval-35" transform="translate(7.592306, 5.575400) rotate(-260.000000) translate(-7.592306, -5.575400) " cx="7.59230618" cy="5.57539957" r="1"></circle>
                                                <circle id="Oval-35-Copy" transform="translate(0.985037, 3.150921) rotate(-240.000000) translate(-0.985037, -3.150921) " cx="0.98503718" cy="3.15092145" r="1"></circle>
                                                <circle id="Oval-35" transform="translate(6.342292, 7.510966) rotate(-220.000000) translate(-6.342292, -7.510966) " cx="6.34229241" cy="7.51096647" r="1"></circle>
                                                <circle id="Oval-35-Copy" transform="translate(2.862176, 1.469843) rotate(-200.000000) translate(-2.862176, -1.469843) " cx="2.86217588" cy="1.46984258" r="1"></circle>
                                            </g>
                                        </g>
                                        <g id="Wheel" transform="translate(72.259740, 23.494872)">
                                            <ellipse id="Oval-29-Copy" fill="#1C1F34" cx="7.46338338" cy="7.35181237" rx="7.46338338" ry="7.35181237"></ellipse>
                                            <ellipse id="Oval-29-Copy-2" fill="url(#linearGradient-25)" cx="7.46338338" cy="7.35181237" rx="4.62017711" ry="4.55111686"></ellipse>
                                            <ellipse id="Oval-29-Copy-5" fill="#1C1F34" cx="7.46335692" cy="7.35178567" rx="2.48778564" ry="2.45059522"></ellipse>
                                            <g id="Group-12" transform="translate(3.198574, 2.500843)" fill="#1C1F34">
                                                <circle id="Oval-35-Copy" cx="4.40941524" cy="8.50173878" r="1"></circle>
                                                <circle id="Oval-35" transform="translate(5.565044, 1.751612) rotate(-340.000000) translate(-5.565044, -1.751612) " cx="5.56504425" cy="1.75161206" r="1"></circle>
                                                <circle id="Oval-35-Copy" transform="translate(1.994926, 7.740667) rotate(-320.000000) translate(-1.994926, -7.740667) " cx="1.99492637" cy="7.74066705" r="1"></circle>
                                                <circle id="Oval-35" transform="translate(7.285380, 3.300848) rotate(-300.000000) translate(-7.285380, -3.300848) " cx="7.28538016" cy="3.30084786" r="1"></circle>
                                                <circle id="Oval-35-Copy" transform="translate(0.642567, 5.627468) rotate(-280.000000) translate(-0.642567, -5.627468) " cx="0.64256686" cy="5.62746846" r="1"></circle>
                                                <circle id="Oval-35" transform="translate(7.592306, 5.575400) rotate(-260.000000) translate(-7.592306, -5.575400) " cx="7.59230618" cy="5.57539957" r="1"></circle>
                                                <circle id="Oval-35-Copy" transform="translate(0.985037, 3.150921) rotate(-240.000000) translate(-0.985037, -3.150921) " cx="0.98503718" cy="3.15092145" r="1"></circle>
                                                <circle id="Oval-35" transform="translate(6.342292, 7.510966) rotate(-220.000000) translate(-6.342292, -7.510966) " cx="6.34229241" cy="7.51096647" r="1"></circle>
                                                <circle id="Oval-35-Copy" transform="translate(2.862176, 1.469843) rotate(-200.000000) translate(-2.862176, -1.469843) " cx="2.86217588" cy="1.46984258" r="1"></circle>
                                            </g>
                                        </g>
                                    </g>
                                </g>
                            </g>
                        </g>
                    </g>
                </g>
            </g>
        </g>
    </g>
</svg>